<?xml version="1.0" standalone="no"?>
 <!DOCTYPE svg PUBLIC "-//W3C//DTD SVG 1.1//EN" 
 "http://www.w3.org/Graphics/SVG/1.1/DTD/svg11.dtd"> 
<svg
  xmlns:svg="http://www.w3.org/2000/svg"
  xmlns="http://www.w3.org/2000/svg"
  xmlns:xlink="http://www.w3.org/1999/xlink"
  version="1.1"
  width="29.700220cm" height="21.000720cm" viewBox="0 0 297002200 210007200">
<title>SVG Picture created as bt-0801-F_Silkscreen.svg date 2022/08/08 14:39:42 </title>
  <desc>Picture generated by PCBNEW </desc>
<g style="fill:#000000; fill-opacity:1.000000;stroke:#000000; stroke-opacity:1.000000;
stroke-linecap:round; stroke-linejoin:round;"
 transform="translate(0 0) scale(1 1)">
</g>
<g style="fill:#000000; fill-opacity:0.0; 
stroke:#000000; stroke-width:0.000000; stroke-opacity:1; 
stroke-linecap:round; stroke-linejoin:round;">
</g>
<g style="fill:#000000; fill-opacity:0.0; 
stroke:#000000; stroke-width:300000.000000; stroke-opacity:1; 
stroke-linecap:round; stroke-linejoin:round;">
<text x="117000000.000000" y="138500000.000000"
textLength="3142858.000000" font-size="2000000.000000" lengthAdjust="spacingAndGlyphs"
text-anchor="middle" opacity="0">ON</text>
<g class="stroked-text"><desc>ON</desc>
<path d="M116071428 136928571
L116357142 136928571
L116500000 137000000
L116642857 137142857
L116714285 137428571
L116714285 137928571
L116642857 138214285
L116500000 138357142
L116357142 138428571
L116071428 138428571
L115928571 138357142
L115785714 138214285
L115714285 137928571
L115714285 137428571
L115785714 137142857
L115928571 137000000
L116071428 136928571
" />
<path d="M117357142 138428571
L117357142 136928571
L118214285 138428571
L118214285 136928571
" />
</g><text x="129000000.000000" y="138500000.000000"
textLength="4532857.000000" font-size="2000000.000000" lengthAdjust="spacingAndGlyphs"
text-anchor="middle" opacity="0">OFF</text>
<g class="stroked-text"><desc>OFF</desc>
<path d="M127571428 136928571
L127857142 136928571
L128000000 137000000
L128142857 137142857
L128214285 137428571
L128214285 137928571
L128142857 138214285
L128000000 138357142
L127857142 138428571
L127571428 138428571
L127428571 138357142
L127285714 138214285
L127214285 137928571
L127214285 137428571
L127285714 137142857
L127428571 137000000
L127571428 136928571
" />
<path d="M129357142 137642857
L128857142 137642857
" />
<path d="M128857142 138428571
L128857142 136928571
L129571428 136928571
" />
<path d="M130642857 137642857
L130142857 137642857
" />
<path d="M130142857 138428571
L130142857 136928571
L130857142 136928571
" />
</g></g>
<g style="fill:#000000; fill-opacity:0.0; 
stroke:#000000; stroke-width:150000.000000; stroke-opacity:1; 
stroke-linecap:round; stroke-linejoin:round;">
<text x="101750000.000000" y="35250000.000000"
textLength="5437619.000000" font-size="1333333.000000" lengthAdjust="spacingAndGlyphs"
text-anchor="middle" opacity="0">Reset1</text>
<g class="stroked-text"><desc>Reset1</desc>
<path d="M100035714 35202380
L99702380 34726190
" />
<path d="M99464285 35202380
L99464285 34202380
L99845238 34202380
L99940476 34250000
L99988095 34297619
L100035714 34392857
L100035714 34535714
L99988095 34630952
L99940476 34678571
L99845238 34726190
L99464285 34726190
" />
<path d="M100845238 35154761
L100750000 35202380
L100559523 35202380
L100464285 35154761
L100416666 35059523
L100416666 34678571
L100464285 34583333
L100559523 34535714
L100750000 34535714
L100845238 34583333
L100892857 34678571
L100892857 34773809
L100416666 34869047
" />
<path d="M101273809 35154761
L101369047 35202380
L101559523 35202380
L101654761 35154761
L101702380 35059523
L101702380 35011904
L101654761 34916666
L101559523 34869047
L101416666 34869047
L101321428 34821428
L101273809 34726190
L101273809 34678571
L101321428 34583333
L101416666 34535714
L101559523 34535714
L101654761 34583333
" />
<path d="M102511904 35154761
L102416666 35202380
L102226190 35202380
L102130952 35154761
L102083333 35059523
L102083333 34678571
L102130952 34583333
L102226190 34535714
L102416666 34535714
L102511904 34583333
L102559523 34678571
L102559523 34773809
L102083333 34869047
" />
<path d="M102845238 34535714
L103226190 34535714
" />
<path d="M102988095 34202380
L102988095 35059523
L103035714 35154761
L103130952 35202380
L103226190 35202380
" />
<path d="M104083333 35202380
L103511904 35202380
" />
<path d="M103797619 35202380
L103797619 34202380
L103702380 34345238
L103607142 34440476
L103511904 34488095
" />
</g><text x="67750000.000000" y="80250000.000000"
textLength="3099762.000000" font-size="1333333.000000" lengthAdjust="spacingAndGlyphs"
text-anchor="middle" opacity="0">R12</text>
<g class="stroked-text"><desc>R12</desc>
<path d="M67107142 80202380
L66773809 79726190
" />
<path d="M66535714 80202380
L66535714 79202380
L66916666 79202380
L67011904 79250000
L67059523 79297619
L67107142 79392857
L67107142 79535714
L67059523 79630952
L67011904 79678571
L66916666 79726190
L66535714 79726190
" />
<path d="M68059523 80202380
L67488095 80202380
" />
<path d="M67773809 80202380
L67773809 79202380
L67678571 79345238
L67583333 79440476
L67488095 79488095
" />
<path d="M68440476 79297619
L68488095 79250000
L68583333 79202380
L68821428 79202380
L68916666 79250000
L68964285 79297619
L69011904 79392857
L69011904 79488095
L68964285 79630952
L68392857 80202380
L69011904 80202380
" />
</g><text x="110750000.000000" y="133000000.000000"
textLength="2147381.000000" font-size="1333333.000000" lengthAdjust="spacingAndGlyphs"
text-anchor="middle" opacity="0">R7</text>
<g class="stroked-text"><desc>R7</desc>
<path d="M110583333 132952380
L110250000 132476190
" />
<path d="M110011904 132952380
L110011904 131952380
L110392857 131952380
L110488095 132000000
L110535714 132047619
L110583333 132142857
L110583333 132285714
L110535714 132380952
L110488095 132428571
L110392857 132476190
L110011904 132476190
" />
<path d="M110916666 131952380
L111583333 131952380
L111154761 132952380
" />
</g><text x="143250000.000000" y="35900000.000000"
textLength="8623571.000000" font-size="1333333.000000" lengthAdjust="spacingAndGlyphs"
text-anchor="middle" opacity="0">ESP_BOOT1</text>
<g class="stroked-text"><desc>ESP_BOOT1</desc>
<path d="M139273809 35328571
L139607142 35328571
" />
<path d="M139750000 35852380
L139273809 35852380
L139273809 34852380
L139750000 34852380
" />
<path d="M140130952 35804761
L140273809 35852380
L140511904 35852380
L140607142 35804761
L140654761 35757142
L140702380 35661904
L140702380 35566666
L140654761 35471428
L140607142 35423809
L140511904 35376190
L140321428 35328571
L140226190 35280952
L140178571 35233333
L140130952 35138095
L140130952 35042857
L140178571 34947619
L140226190 34900000
L140321428 34852380
L140559523 34852380
L140702380 34900000
" />
<path d="M141130952 35852380
L141130952 34852380
L141511904 34852380
L141607142 34900000
L141654761 34947619
L141702380 35042857
L141702380 35185714
L141654761 35280952
L141607142 35328571
L141511904 35376190
L141130952 35376190
" />
<path d="M141892857 35947619
L142654761 35947619
" />
<path d="M143226190 35328571
L143369047 35376190
L143416666 35423809
L143464285 35519047
L143464285 35661904
L143416666 35757142
L143369047 35804761
L143273809 35852380
L142892857 35852380
L142892857 34852380
L143226190 34852380
L143321428 34900000
L143369047 34947619
L143416666 35042857
L143416666 35138095
L143369047 35233333
L143321428 35280952
L143226190 35328571
L142892857 35328571
" />
<path d="M144083333 34852380
L144273809 34852380
L144369047 34900000
L144464285 34995238
L144511904 35185714
L144511904 35519047
L144464285 35709523
L144369047 35804761
L144273809 35852380
L144083333 35852380
L143988095 35804761
L143892857 35709523
L143845238 35519047
L143845238 35185714
L143892857 34995238
L143988095 34900000
L144083333 34852380
" />
<path d="M145130952 34852380
L145321428 34852380
L145416666 34900000
L145511904 34995238
L145559523 35185714
L145559523 35519047
L145511904 35709523
L145416666 35804761
L145321428 35852380
L145130952 35852380
L145035714 35804761
L144940476 35709523
L144892857 35519047
L144892857 35185714
L144940476 34995238
L145035714 34900000
L145130952 34852380
" />
<path d="M145845238 34852380
L146416666 34852380
" />
<path d="M146130952 35852380
L146130952 34852380
" />
<path d="M147273809 35852380
L146702380 35852380
" />
<path d="M146988095 35852380
L146988095 34852380
L146892857 34995238
L146797619 35090476
L146702380 35138095
" />
</g><text x="103000000.000000" y="29210000.000000"
textLength="2147381.000000" font-size="1333333.000000" lengthAdjust="spacingAndGlyphs"
text-anchor="middle" opacity="0">C5</text>
<g class="stroked-text"><desc>C5</desc>
<path d="M102833333 29067142
L102785714 29114761
L102642857 29162380
L102547619 29162380
L102404761 29114761
L102309523 29019523
L102261904 28924285
L102214285 28733809
L102214285 28590952
L102261904 28400476
L102309523 28305238
L102404761 28210000
L102547619 28162380
L102642857 28162380
L102785714 28210000
L102833333 28257619
" />
<path d="M103738095 28162380
L103261904 28162380
L103214285 28638571
L103261904 28590952
L103357142 28543333
L103595238 28543333
L103690476 28590952
L103738095 28638571
L103785714 28733809
L103785714 28971904
L103738095 29067142
L103690476 29114761
L103595238 29162380
L103357142 29162380
L103261904 29114761
L103214285 29067142
" />
</g><text x="110750000.000000" y="130750000.000000"
textLength="2147381.000000" font-size="1333333.000000" lengthAdjust="spacingAndGlyphs"
text-anchor="middle" opacity="0">R9</text>
<g class="stroked-text"><desc>R9</desc>
<path d="M110583333 130702380
L110250000 130226190
" />
<path d="M110011904 130702380
L110011904 129702380
L110392857 129702380
L110488095 129750000
L110535714 129797619
L110583333 129892857
L110583333 130035714
L110535714 130130952
L110488095 130178571
L110392857 130226190
L110011904 130226190
" />
<path d="M111059523 130702380
L111250000 130702380
L111345238 130654761
L111392857 130607142
L111488095 130464285
L111535714 130273809
L111535714 129892857
L111488095 129797619
L111440476 129750000
L111345238 129702380
L111154761 129702380
L111059523 129750000
L111011904 129797619
L110964285 129892857
L110964285 130130952
L111011904 130226190
L111059523 130273809
L111154761 130321428
L111345238 130321428
L111440476 130273809
L111488095 130226190
L111535714 130130952
" />
</g><text x="110750000.000000" y="135750000.000000"
textLength="2147381.000000" font-size="1333333.000000" lengthAdjust="spacingAndGlyphs"
text-anchor="middle" opacity="0">R6</text>
<g class="stroked-text"><desc>R6</desc>
<path d="M110583333 135702380
L110250000 135226190
" />
<path d="M110011904 135702380
L110011904 134702380
L110392857 134702380
L110488095 134750000
L110535714 134797619
L110583333 134892857
L110583333 135035714
L110535714 135130952
L110488095 135178571
L110392857 135226190
L110011904 135226190
" />
<path d="M111440476 134702380
L111250000 134702380
L111154761 134750000
L111107142 134797619
L111011904 134940476
L110964285 135130952
L110964285 135511904
L111011904 135607142
L111059523 135654761
L111154761 135702380
L111345238 135702380
L111440476 135654761
L111488095 135607142
L111535714 135511904
L111535714 135273809
L111488095 135178571
L111440476 135130952
L111345238 135083333
L111154761 135083333
L111059523 135130952
L111011904 135178571
L110964285 135273809
" />
</g><text x="144250000.000000" y="129250000.000000"
textLength="2147381.000000" font-size="1333333.000000" lengthAdjust="spacingAndGlyphs"
text-anchor="middle" opacity="0">C1</text>
<g class="stroked-text"><desc>C1</desc>
<path d="M144083333 129107142
L144035714 129154761
L143892857 129202380
L143797619 129202380
L143654761 129154761
L143559523 129059523
L143511904 128964285
L143464285 128773809
L143464285 128630952
L143511904 128440476
L143559523 128345238
L143654761 128250000
L143797619 128202380
L143892857 128202380
L144035714 128250000
L144083333 128297619
" />
<path d="M145035714 129202380
L144464285 129202380
" />
<path d="M144750000 129202380
L144750000 128202380
L144654761 128345238
L144559523 128440476
L144464285 128488095
" />
</g><text x="88250000.000000" y="35460000.000000"
textLength="2195000.000000" font-size="1333333.000000" lengthAdjust="spacingAndGlyphs"
text-anchor="middle" opacity="0">Q1</text>
<g class="stroked-text"><desc>Q1</desc>
<path d="M88154761 35507619
L88059523 35460000
L87964285 35364761
L87821428 35221904
L87726190 35174285
L87630952 35174285
" />
<path d="M87678571 35412380
L87583333 35364761
L87488095 35269523
L87440476 35079047
L87440476 34745714
L87488095 34555238
L87583333 34460000
L87678571 34412380
L87869047 34412380
L87964285 34460000
L88059523 34555238
L88107142 34745714
L88107142 35079047
L88059523 35269523
L87964285 35364761
L87869047 35412380
L87678571 35412380
" />
<path d="M89059523 35412380
L88488095 35412380
" />
<path d="M88773809 35412380
L88773809 34412380
L88678571 34555238
L88583333 34650476
L88488095 34698095
" />
</g><g transform="rotate(-90.000000 131700000.000000 132250000.000000)">
<text x="131700000.000000" y="132750000.000000"
textLength="1956905.000000" font-size="1333333.000000" lengthAdjust="spacingAndGlyphs"
text-anchor="middle" opacity="0">L1</text>
</g>
<g class="stroked-text"><desc>L1</desc>
<path d="M132152380 132416666
L132152380 132892857
L131152380 132892857
" />
<path d="M132152380 131559523
L132152380 132130952
" />
<path d="M132152380 131845238
L131152380 131845238
L131295238 131940476
L131390476 132035714
L131438095 132130952
" />
</g><text x="71750000.000000" y="72100000.000000"
textLength="2147381.000000" font-size="1333333.000000" lengthAdjust="spacingAndGlyphs"
text-anchor="middle" opacity="0">D2</text>
<g class="stroked-text"><desc>D2</desc>
<path d="M71011904 72052380
L71011904 71052380
L71250000 71052380
L71392857 71100000
L71488095 71195238
L71535714 71290476
L71583333 71480952
L71583333 71623809
L71535714 71814285
L71488095 71909523
L71392857 72004761
L71250000 72052380
L71011904 72052380
" />
<path d="M71964285 71147619
L72011904 71100000
L72107142 71052380
L72345238 71052380
L72440476 71100000
L72488095 71147619
L72535714 71242857
L72535714 71338095
L72488095 71480952
L71916666 72052380
L72535714 72052380
" />
</g><text x="67750000.000000" y="78250000.000000"
textLength="3099762.000000" font-size="1333333.000000" lengthAdjust="spacingAndGlyphs"
text-anchor="middle" opacity="0">R11</text>
<g class="stroked-text"><desc>R11</desc>
<path d="M67107142 78202380
L66773809 77726190
" />
<path d="M66535714 78202380
L66535714 77202380
L66916666 77202380
L67011904 77250000
L67059523 77297619
L67107142 77392857
L67107142 77535714
L67059523 77630952
L67011904 77678571
L66916666 77726190
L66535714 77726190
" />
<path d="M68059523 78202380
L67488095 78202380
" />
<path d="M67773809 78202380
L67773809 77202380
L67678571 77345238
L67583333 77440476
L67488095 77488095
" />
<path d="M69011904 78202380
L68440476 78202380
" />
<path d="M68726190 78202380
L68726190 77202380
L68630952 77345238
L68535714 77440476
L68440476 77488095
" />
</g><text x="91000000.000000" y="41750000.000000"
textLength="2147381.000000" font-size="1333333.000000" lengthAdjust="spacingAndGlyphs"
text-anchor="middle" opacity="0">R5</text>
<g class="stroked-text"><desc>R5</desc>
<path d="M90833333 41702380
L90500000 41226190
" />
<path d="M90261904 41702380
L90261904 40702380
L90642857 40702380
L90738095 40750000
L90785714 40797619
L90833333 40892857
L90833333 41035714
L90785714 41130952
L90738095 41178571
L90642857 41226190
L90261904 41226190
" />
<path d="M91738095 40702380
L91261904 40702380
L91214285 41178571
L91261904 41130952
L91357142 41083333
L91595238 41083333
L91690476 41130952
L91738095 41178571
L91785714 41273809
L91785714 41511904
L91738095 41607142
L91690476 41654761
L91595238 41702380
L91357142 41702380
L91261904 41654761
L91214285 41607142
" />
</g><text x="144250000.000000" y="126750000.000000"
textLength="2147381.000000" font-size="1333333.000000" lengthAdjust="spacingAndGlyphs"
text-anchor="middle" opacity="0">D1</text>
<g class="stroked-text"><desc>D1</desc>
<path d="M143511904 126702380
L143511904 125702380
L143750000 125702380
L143892857 125750000
L143988095 125845238
L144035714 125940476
L144083333 126130952
L144083333 126273809
L144035714 126464285
L143988095 126559523
L143892857 126654761
L143750000 126702380
L143511904 126702380
" />
<path d="M145035714 126702380
L144464285 126702380
" />
<path d="M144750000 126702380
L144750000 125702380
L144654761 125845238
L144559523 125940476
L144464285 125988095
" />
</g><text x="133500000.000000" y="127500000.000000"
textLength="2147381.000000" font-size="1333333.000000" lengthAdjust="spacingAndGlyphs"
text-anchor="middle" opacity="0">C3</text>
<g class="stroked-text"><desc>C3</desc>
<path d="M133333333 127357142
L133285714 127404761
L133142857 127452380
L133047619 127452380
L132904761 127404761
L132809523 127309523
L132761904 127214285
L132714285 127023809
L132714285 126880952
L132761904 126690476
L132809523 126595238
L132904761 126500000
L133047619 126452380
L133142857 126452380
L133285714 126500000
L133333333 126547619
" />
<path d="M133666666 126452380
L134285714 126452380
L133952380 126833333
L134095238 126833333
L134190476 126880952
L134238095 126928571
L134285714 127023809
L134285714 127261904
L134238095 127357142
L134190476 127404761
L134095238 127452380
L133809523 127452380
L133714285 127404761
L133666666 127357142
" />
</g><text x="123112400.000000" y="137811300.000000"
textLength="1414048.000000" font-size="853333.000000" lengthAdjust="spacingAndGlyphs"
text-anchor="middle" opacity="0">S1</text>
<g class="stroked-text"><desc>S1</desc>
<path d="M122624780 137750347
L122716209 137780823
L122868590 137780823
L122929542 137750347
L122960019 137719871
L122990495 137658919
L122990495 137597966
L122960019 137537014
L122929542 137506538
L122868590 137476061
L122746685 137445585
L122685733 137415109
L122655257 137384633
L122624780 137323680
L122624780 137262728
L122655257 137201776
L122685733 137171300
L122746685 137140823
L122899066 137140823
L122990495 137171300
" />
<path d="M123600019 137780823
L123234304 137780823
" />
<path d="M123417161 137780823
L123417161 137140823
L123356209 137232252
L123295257 137293204
L123234304 137323680
" />
</g><text x="96250000.000000" y="41750000.000000"
textLength="2147381.000000" font-size="1333333.000000" lengthAdjust="spacingAndGlyphs"
text-anchor="middle" opacity="0">R3</text>
<g class="stroked-text"><desc>R3</desc>
<path d="M96083333 41702380
L95750000 41226190
" />
<path d="M95511904 41702380
L95511904 40702380
L95892857 40702380
L95988095 40750000
L96035714 40797619
L96083333 40892857
L96083333 41035714
L96035714 41130952
L95988095 41178571
L95892857 41226190
L95511904 41226190
" />
<path d="M96416666 40702380
L97035714 40702380
L96702380 41083333
L96845238 41083333
L96940476 41130952
L96988095 41178571
L97035714 41273809
L97035714 41511904
L96988095 41607142
L96940476 41654761
L96845238 41702380
L96559523 41702380
L96464285 41654761
L96416666 41607142
" />
</g><text x="138500000.000000" y="30000000.000000"
textLength="7766429.000000" font-size="1333333.000000" lengthAdjust="spacingAndGlyphs"
text-anchor="middle" opacity="0">ESP_DBG1</text>
<g class="stroked-text"><desc>ESP_DBG1</desc>
<path d="M134952380 29428571
L135285714 29428571
" />
<path d="M135428571 29952380
L134952380 29952380
L134952380 28952380
L135428571 28952380
" />
<path d="M135809523 29904761
L135952380 29952380
L136190476 29952380
L136285714 29904761
L136333333 29857142
L136380952 29761904
L136380952 29666666
L136333333 29571428
L136285714 29523809
L136190476 29476190
L136000000 29428571
L135904761 29380952
L135857142 29333333
L135809523 29238095
L135809523 29142857
L135857142 29047619
L135904761 29000000
L136000000 28952380
L136238095 28952380
L136380952 29000000
" />
<path d="M136809523 29952380
L136809523 28952380
L137190476 28952380
L137285714 29000000
L137333333 29047619
L137380952 29142857
L137380952 29285714
L137333333 29380952
L137285714 29428571
L137190476 29476190
L136809523 29476190
" />
<path d="M137571428 30047619
L138333333 30047619
" />
<path d="M138571428 29952380
L138571428 28952380
L138809523 28952380
L138952380 29000000
L139047619 29095238
L139095238 29190476
L139142857 29380952
L139142857 29523809
L139095238 29714285
L139047619 29809523
L138952380 29904761
L138809523 29952380
L138571428 29952380
" />
<path d="M139904761 29428571
L140047619 29476190
L140095238 29523809
L140142857 29619047
L140142857 29761904
L140095238 29857142
L140047619 29904761
L139952380 29952380
L139571428 29952380
L139571428 28952380
L139904761 28952380
L140000000 29000000
L140047619 29047619
L140095238 29142857
L140095238 29238095
L140047619 29333333
L140000000 29380952
L139904761 29428571
L139571428 29428571
" />
<path d="M141095238 29000000
L141000000 28952380
L140857142 28952380
L140714285 29000000
L140619047 29095238
L140571428 29190476
L140523809 29380952
L140523809 29523809
L140571428 29714285
L140619047 29809523
L140714285 29904761
L140857142 29952380
L140952380 29952380
L141095238 29904761
L141142857 29857142
L141142857 29523809
L140952380 29523809
" />
<path d="M142095238 29952380
L141523809 29952380
" />
<path d="M141809523 29952380
L141809523 28952380
L141714285 29095238
L141619047 29190476
L141523809 29238095
" />
</g><text x="144250000.000000" y="131750000.000000"
textLength="2147381.000000" font-size="1333333.000000" lengthAdjust="spacingAndGlyphs"
text-anchor="middle" opacity="0">C2</text>
<g class="stroked-text"><desc>C2</desc>
<path d="M144083333 131607142
L144035714 131654761
L143892857 131702380
L143797619 131702380
L143654761 131654761
L143559523 131559523
L143511904 131464285
L143464285 131273809
L143464285 131130952
L143511904 130940476
L143559523 130845238
L143654761 130750000
L143797619 130702380
L143892857 130702380
L144035714 130750000
L144083333 130797619
" />
<path d="M144464285 130797619
L144511904 130750000
L144607142 130702380
L144845238 130702380
L144940476 130750000
L144988095 130797619
L145035714 130892857
L145035714 130988095
L144988095 131130952
L144416666 131702380
L145035714 131702380
" />
</g><g transform="rotate(-90.000000 133500000.000000 83750000.000000)">
<text x="133500000.000000" y="84250000.000000"
textLength="2909286.000000" font-size="1333333.000000" lengthAdjust="spacingAndGlyphs"
text-anchor="middle" opacity="0">BT3</text>
</g>
<g class="stroked-text"><desc>BT3</desc>
<path d="M133428571 84535714
L133476190 84392857
L133523809 84345238
L133619047 84297619
L133761904 84297619
L133857142 84345238
L133904761 84392857
L133952380 84488095
L133952380 84869047
L132952380 84869047
L132952380 84535714
L133000000 84440476
L133047619 84392857
L133142857 84345238
L133238095 84345238
L133333333 84392857
L133380952 84440476
L133428571 84535714
L133428571 84869047
" />
<path d="M132952380 84011904
L132952380 83440476
" />
<path d="M133952380 83726190
L132952380 83726190
" />
<path d="M132952380 83202380
L132952380 82583333
L133333333 82916666
L133333333 82773809
L133380952 82678571
L133428571 82630952
L133523809 82583333
L133761904 82583333
L133857142 82630952
L133904761 82678571
L133952380 82773809
L133952380 83059523
L133904761 83154761
L133857142 83202380
" />
</g><g transform="rotate(-90.000000 88000000.000000 83750000.000000)">
<text x="88000000.000000" y="84250000.000000"
textLength="2909286.000000" font-size="1333333.000000" lengthAdjust="spacingAndGlyphs"
text-anchor="middle" opacity="0">BT2</text>
</g>
<g class="stroked-text"><desc>BT2</desc>
<path d="M87928571 84535714
L87976190 84392857
L88023809 84345238
L88119047 84297619
L88261904 84297619
L88357142 84345238
L88404761 84392857
L88452380 84488095
L88452380 84869047
L87452380 84869047
L87452380 84535714
L87500000 84440476
L87547619 84392857
L87642857 84345238
L87738095 84345238
L87833333 84392857
L87880952 84440476
L87928571 84535714
L87928571 84869047
" />
<path d="M87452380 84011904
L87452380 83440476
" />
<path d="M88452380 83726190
L87452380 83726190
" />
<path d="M87547619 83154761
L87500000 83107142
L87452380 83011904
L87452380 82773809
L87500000 82678571
L87547619 82630952
L87642857 82583333
L87738095 82583333
L87880952 82630952
L88452380 83202380
L88452380 82583333
" />
</g><text x="93750000.000000" y="35460000.000000"
textLength="2195000.000000" font-size="1333333.000000" lengthAdjust="spacingAndGlyphs"
text-anchor="middle" opacity="0">Q2</text>
<g class="stroked-text"><desc>Q2</desc>
<path d="M93654761 35507619
L93559523 35460000
L93464285 35364761
L93321428 35221904
L93226190 35174285
L93130952 35174285
" />
<path d="M93178571 35412380
L93083333 35364761
L92988095 35269523
L92940476 35079047
L92940476 34745714
L92988095 34555238
L93083333 34460000
L93178571 34412380
L93369047 34412380
L93464285 34460000
L93559523 34555238
L93607142 34745714
L93607142 35079047
L93559523 35269523
L93464285 35364761
L93369047 35412380
L93178571 35412380
" />
<path d="M93988095 34507619
L94035714 34460000
L94130952 34412380
L94369047 34412380
L94464285 34460000
L94511904 34507619
L94559523 34602857
L94559523 34698095
L94511904 34840952
L93940476 35412380
L94559523 35412380
" />
</g><text x="102000000.000000" y="41750000.000000"
textLength="2147381.000000" font-size="1333333.000000" lengthAdjust="spacingAndGlyphs"
text-anchor="middle" opacity="0">R4</text>
<g class="stroked-text"><desc>R4</desc>
<path d="M101833333 41702380
L101500000 41226190
" />
<path d="M101261904 41702380
L101261904 40702380
L101642857 40702380
L101738095 40750000
L101785714 40797619
L101833333 40892857
L101833333 41035714
L101785714 41130952
L101738095 41178571
L101642857 41226190
L101261904 41226190
" />
<path d="M102690476 41035714
L102690476 41702380
" />
<path d="M102452380 40654761
L102214285 41369047
L102833333 41369047
" />
</g><text x="99750000.000000" y="125000000.000000"
textLength="3242619.000000" font-size="1333333.000000" lengthAdjust="spacingAndGlyphs"
text-anchor="middle" opacity="0">SW4</text>
<g class="stroked-text"><desc>SW4</desc>
<path d="M98416666 124904761
L98559523 124952380
L98797619 124952380
L98892857 124904761
L98940476 124857142
L98988095 124761904
L98988095 124666666
L98940476 124571428
L98892857 124523809
L98797619 124476190
L98607142 124428571
L98511904 124380952
L98464285 124333333
L98416666 124238095
L98416666 124142857
L98464285 124047619
L98511904 124000000
L98607142 123952380
L98845238 123952380
L98988095 124000000
" />
<path d="M99321428 123952380
L99559523 124952380
L99750000 124238095
L99940476 124952380
L100178571 123952380
" />
<path d="M100988095 124285714
L100988095 124952380
" />
<path d="M100750000 123904761
L100511904 124619047
L101130952 124619047
" />
</g><text x="85337500.000000" y="41250000.000000"
textLength="2147381.000000" font-size="1333333.000000" lengthAdjust="spacingAndGlyphs"
text-anchor="middle" opacity="0">R2</text>
<g class="stroked-text"><desc>R2</desc>
<path d="M85170833 41202380
L84837500 40726190
" />
<path d="M84599404 41202380
L84599404 40202380
L84980357 40202380
L85075595 40250000
L85123214 40297619
L85170833 40392857
L85170833 40535714
L85123214 40630952
L85075595 40678571
L84980357 40726190
L84599404 40726190
" />
<path d="M85551785 40297619
L85599404 40250000
L85694642 40202380
L85932738 40202380
L86027976 40250000
L86075595 40297619
L86123214 40392857
L86123214 40488095
L86075595 40630952
L85504166 41202380
L86123214 41202380
" />
</g><text x="95800000.000000" y="33500000.000000"
textLength="2147381.000000" font-size="1333333.000000" lengthAdjust="spacingAndGlyphs"
text-anchor="middle" opacity="0">R8</text>
<g class="stroked-text"><desc>R8</desc>
<path d="M95633333 33452380
L95300000 32976190
" />
<path d="M95061904 33452380
L95061904 32452380
L95442857 32452380
L95538095 32500000
L95585714 32547619
L95633333 32642857
L95633333 32785714
L95585714 32880952
L95538095 32928571
L95442857 32976190
L95061904 32976190
" />
<path d="M96204761 32880952
L96109523 32833333
L96061904 32785714
L96014285 32690476
L96014285 32642857
L96061904 32547619
L96109523 32500000
L96204761 32452380
L96395238 32452380
L96490476 32500000
L96538095 32547619
L96585714 32642857
L96585714 32690476
L96538095 32785714
L96490476 32833333
L96395238 32880952
L96204761 32880952
L96109523 32928571
L96061904 32976190
L96014285 33071428
L96014285 33261904
L96061904 33357142
L96109523 33404761
L96204761 33452380
L96395238 33452380
L96490476 33404761
L96538095 33357142
L96585714 33261904
L96585714 33071428
L96538095 32976190
L96490476 32928571
L96395238 32880952
" />
</g><g transform="rotate(-90.000000 110250000.000000 83750000.000000)">
<text x="110250000.000000" y="84250000.000000"
textLength="2909286.000000" font-size="1333333.000000" lengthAdjust="spacingAndGlyphs"
text-anchor="middle" opacity="0">BT4</text>
</g>
<g class="stroked-text"><desc>BT4</desc>
<path d="M110178571 84535714
L110226190 84392857
L110273809 84345238
L110369047 84297619
L110511904 84297619
L110607142 84345238
L110654761 84392857
L110702380 84488095
L110702380 84869047
L109702380 84869047
L109702380 84535714
L109750000 84440476
L109797619 84392857
L109892857 84345238
L109988095 84345238
L110083333 84392857
L110130952 84440476
L110178571 84535714
L110178571 84869047
" />
<path d="M109702380 84011904
L109702380 83440476
" />
<path d="M110702380 83726190
L109702380 83726190
" />
<path d="M110035714 82678571
L110702380 82678571
" />
<path d="M109654761 82916666
L110369047 83154761
L110369047 82535714
" />
</g><text x="85337500.000000" y="43500000.000000"
textLength="2147381.000000" font-size="1333333.000000" lengthAdjust="spacingAndGlyphs"
text-anchor="middle" opacity="0">R1</text>
<g class="stroked-text"><desc>R1</desc>
<path d="M85170833 43452380
L84837500 42976190
" />
<path d="M84599404 43452380
L84599404 42452380
L84980357 42452380
L85075595 42500000
L85123214 42547619
L85170833 42642857
L85170833 42785714
L85123214 42880952
L85075595 42928571
L84980357 42976190
L84599404 42976190
" />
<path d="M86123214 43452380
L85551785 43452380
" />
<path d="M85837500 43452380
L85837500 42452380
L85742261 42595238
L85647023 42690476
L85551785 42738095
" />
</g><text x="67750000.000000" y="82250000.000000"
textLength="3099762.000000" font-size="1333333.000000" lengthAdjust="spacingAndGlyphs"
text-anchor="middle" opacity="0">R13</text>
<g class="stroked-text"><desc>R13</desc>
<path d="M67107142 82202380
L66773809 81726190
" />
<path d="M66535714 82202380
L66535714 81202380
L66916666 81202380
L67011904 81250000
L67059523 81297619
L67107142 81392857
L67107142 81535714
L67059523 81630952
L67011904 81678571
L66916666 81726190
L66535714 81726190
" />
<path d="M68059523 82202380
L67488095 82202380
" />
<path d="M67773809 82202380
L67773809 81202380
L67678571 81345238
L67583333 81440476
L67488095 81488095
" />
<path d="M68392857 81202380
L69011904 81202380
L68678571 81583333
L68821428 81583333
L68916666 81630952
L68964285 81678571
L69011904 81773809
L69011904 82011904
L68964285 82107142
L68916666 82154761
L68821428 82202380
L68535714 82202380
L68440476 82154761
L68392857 82107142
" />
</g><text x="141462500.000000" y="131750000.000000"
textLength="4099762.000000" font-size="1333333.000000" lengthAdjust="spacingAndGlyphs"
text-anchor="middle" opacity="0">U201</text>
<g class="stroked-text"><desc>U201</desc>
<path d="M139748214 130702380
L139748214 131511904
L139795833 131607142
L139843452 131654761
L139938690 131702380
L140129166 131702380
L140224404 131654761
L140272023 131607142
L140319642 131511904
L140319642 130702380
" />
<path d="M140748214 130797619
L140795833 130750000
L140891071 130702380
L141129166 130702380
L141224404 130750000
L141272023 130797619
L141319642 130892857
L141319642 130988095
L141272023 131130952
L140700595 131702380
L141319642 131702380
" />
<path d="M141938690 130702380
L142033928 130702380
L142129166 130750000
L142176785 130797619
L142224404 130892857
L142272023 131083333
L142272023 131321428
L142224404 131511904
L142176785 131607142
L142129166 131654761
L142033928 131702380
L141938690 131702380
L141843452 131654761
L141795833 131607142
L141748214 131511904
L141700595 131321428
L141700595 131083333
L141748214 130892857
L141795833 130797619
L141843452 130750000
L141938690 130702380
" />
<path d="M143224404 131702380
L142652976 131702380
" />
<path d="M142938690 131702380
L142938690 130702380
L142843452 130845238
L142748214 130940476
L142652976 130988095
" />
</g><text x="110250000.000000" y="128250000.000000"
textLength="3099762.000000" font-size="1333333.000000" lengthAdjust="spacingAndGlyphs"
text-anchor="middle" opacity="0">R10</text>
<g class="stroked-text"><desc>R10</desc>
<path d="M109607142 128202380
L109273809 127726190
" />
<path d="M109035714 128202380
L109035714 127202380
L109416666 127202380
L109511904 127250000
L109559523 127297619
L109607142 127392857
L109607142 127535714
L109559523 127630952
L109511904 127678571
L109416666 127726190
L109035714 127726190
" />
<path d="M110559523 128202380
L109988095 128202380
" />
<path d="M110273809 128202380
L110273809 127202380
L110178571 127345238
L110083333 127440476
L109988095 127488095
" />
<path d="M111178571 127202380
L111273809 127202380
L111369047 127250000
L111416666 127297619
L111464285 127392857
L111511904 127583333
L111511904 127821428
L111464285 128011904
L111416666 128107142
L111369047 128154761
L111273809 128202380
L111178571 128202380
L111083333 128154761
L111035714 128107142
L110988095 128011904
L110940476 127821428
L110940476 127583333
L110988095 127392857
L111035714 127297619
L111083333 127250000
L111178571 127202380
" />
</g><g transform="rotate(-90.000000 155750000.000000 83750000.000000)">
<text x="155750000.000000" y="84250000.000000"
textLength="2909286.000000" font-size="1333333.000000" lengthAdjust="spacingAndGlyphs"
text-anchor="middle" opacity="0">BT1</text>
</g>
<g class="stroked-text"><desc>BT1</desc>
<path d="M155678571 84535714
L155726190 84392857
L155773809 84345238
L155869047 84297619
L156011904 84297619
L156107142 84345238
L156154761 84392857
L156202380 84488095
L156202380 84869047
L155202380 84869047
L155202380 84535714
L155250000 84440476
L155297619 84392857
L155392857 84345238
L155488095 84345238
L155583333 84392857
L155630952 84440476
L155678571 84535714
L155678571 84869047
" />
<path d="M155202380 84011904
L155202380 83440476
" />
<path d="M156202380 83726190
L155202380 83726190
" />
<path d="M156202380 82583333
L156202380 83154761
" />
<path d="M156202380 82869047
L155202380 82869047
L155345238 82964285
L155440476 83059523
L155488095 83154761
" />
</g><text x="120250000.000000" y="25250000.000000"
textLength="4099762.000000" font-size="1333333.000000" lengthAdjust="spacingAndGlyphs"
text-anchor="middle" opacity="0">U101</text>
<g class="stroked-text"><desc>U101</desc>
<path d="M118535714 24202380
L118535714 25011904
L118583333 25107142
L118630952 25154761
L118726190 25202380
L118916666 25202380
L119011904 25154761
L119059523 25107142
L119107142 25011904
L119107142 24202380
" />
<path d="M120107142 25202380
L119535714 25202380
" />
<path d="M119821428 25202380
L119821428 24202380
L119726190 24345238
L119630952 24440476
L119535714 24488095
" />
<path d="M120726190 24202380
L120821428 24202380
L120916666 24250000
L120964285 24297619
L121011904 24392857
L121059523 24583333
L121059523 24821428
L121011904 25011904
L120964285 25107142
L120916666 25154761
L120821428 25202380
L120726190 25202380
L120630952 25154761
L120583333 25107142
L120535714 25011904
L120488095 24821428
L120488095 24583333
L120535714 24392857
L120583333 24297619
L120630952 24250000
L120726190 24202380
" />
<path d="M122011904 25202380
L121440476 25202380
" />
<path d="M121726190 25202380
L121726190 24202380
L121630952 24345238
L121535714 24440476
L121440476 24488095
" />
</g><text x="103000000.000000" y="27000000.000000"
textLength="2147381.000000" font-size="1333333.000000" lengthAdjust="spacingAndGlyphs"
text-anchor="middle" opacity="0">C6</text>
<g class="stroked-text"><desc>C6</desc>
<path d="M102833333 26857142
L102785714 26904761
L102642857 26952380
L102547619 26952380
L102404761 26904761
L102309523 26809523
L102261904 26714285
L102214285 26523809
L102214285 26380952
L102261904 26190476
L102309523 26095238
L102404761 26000000
L102547619 25952380
L102642857 25952380
L102785714 26000000
L102833333 26047619
" />
<path d="M103690476 25952380
L103500000 25952380
L103404761 26000000
L103357142 26047619
L103261904 26190476
L103214285 26380952
L103214285 26761904
L103261904 26857142
L103309523 26904761
L103404761 26952380
L103595238 26952380
L103690476 26904761
L103738095 26857142
L103785714 26761904
L103785714 26523809
L103738095 26428571
L103690476 26380952
L103595238 26333333
L103404761 26333333
L103309523 26380952
L103261904 26428571
L103214285 26523809
" />
</g><text x="120904000.000000" y="69803000.000000"
textLength="7814048.000000" font-size="1333333.000000" lengthAdjust="spacingAndGlyphs"
text-anchor="middle" opacity="0">SENSOR_1</text>
<g class="stroked-text"><desc>SENSOR_1</desc>
<path d="M117284952 69707761
L117427809 69755380
L117665904 69755380
L117761142 69707761
L117808761 69660142
L117856380 69564904
L117856380 69469666
L117808761 69374428
L117761142 69326809
L117665904 69279190
L117475428 69231571
L117380190 69183952
L117332571 69136333
L117284952 69041095
L117284952 68945857
L117332571 68850619
L117380190 68803000
L117475428 68755380
L117713523 68755380
L117856380 68803000
" />
<path d="M118284952 69231571
L118618285 69231571
" />
<path d="M118761142 69755380
L118284952 69755380
L118284952 68755380
L118761142 68755380
" />
<path d="M119189714 69755380
L119189714 68755380
L119761142 69755380
L119761142 68755380
" />
<path d="M120189714 69707761
L120332571 69755380
L120570666 69755380
L120665904 69707761
L120713523 69660142
L120761142 69564904
L120761142 69469666
L120713523 69374428
L120665904 69326809
L120570666 69279190
L120380190 69231571
L120284952 69183952
L120237333 69136333
L120189714 69041095
L120189714 68945857
L120237333 68850619
L120284952 68803000
L120380190 68755380
L120618285 68755380
L120761142 68803000
" />
<path d="M121380190 68755380
L121570666 68755380
L121665904 68803000
L121761142 68898238
L121808761 69088714
L121808761 69422047
L121761142 69612523
L121665904 69707761
L121570666 69755380
L121380190 69755380
L121284952 69707761
L121189714 69612523
L121142095 69422047
L121142095 69088714
L121189714 68898238
L121284952 68803000
L121380190 68755380
" />
<path d="M122808761 69755380
L122475428 69279190
" />
<path d="M122237333 69755380
L122237333 68755380
L122618285 68755380
L122713523 68803000
L122761142 68850619
L122808761 68945857
L122808761 69088714
L122761142 69183952
L122713523 69231571
L122618285 69279190
L122237333 69279190
" />
<path d="M122999238 69850619
L123761142 69850619
" />
<path d="M124523047 69755380
L123951619 69755380
" />
<path d="M124237333 69755380
L124237333 68755380
L124142095 68898238
L124046857 68993476
L123951619 69041095
" />
</g><text x="101250000.000000" y="33500000.000000"
textLength="2147381.000000" font-size="1333333.000000" lengthAdjust="spacingAndGlyphs"
text-anchor="middle" opacity="0">C4</text>
<g class="stroked-text"><desc>C4</desc>
<path d="M101083333 33357142
L101035714 33404761
L100892857 33452380
L100797619 33452380
L100654761 33404761
L100559523 33309523
L100511904 33214285
L100464285 33023809
L100464285 32880952
L100511904 32690476
L100559523 32595238
L100654761 32500000
L100797619 32452380
L100892857 32452380
L101035714 32500000
L101083333 32547619
" />
<path d="M101940476 32785714
L101940476 33452380
" />
<path d="M101702380 32404761
L101464285 33119047
L102083333 33119047
" />
</g></g>
<g style="fill:#000000; fill-opacity:0.0; 
stroke:#000000; stroke-width:120000.000000; stroke-opacity:1; 
stroke-linecap:round; stroke-linejoin:round;">
<path d="M104560000 35650000
L104560000 39350000
" />
<path d="M98440000 35650000
L104560000 35650000
" />
<path d="M104560000 39350000
L98440000 39350000
" />
<path d="M98440000 39350000
L98440000 35650000
" />
<path d="M71227064 80485000
L70772936 80485000
" />
<path d="M71227064 79015000
L70772936 79015000
" />
<path d="M113727064 133485000
L113272936 133485000
" />
<path d="M113727064 132015000
L113272936 132015000
" />
<path d="M140190000 39850000
L140190000 36150000
" />
<path d="M140190000 36150000
L146310000 36150000
" />
<path d="M146310000 39850000
L140190000 39850000
" />
<path d="M146310000 36150000
L146310000 39850000
" />
<path d="M106011252 28015000
L105488748 28015000
" />
<path d="M106011252 29485000
L105488748 29485000
" />
<path d="M113727064 130985000
L113272936 130985000
" />
<path d="M113727064 129515000
L113272936 129515000
" />
<path d="M113727064 134515000
L113272936 134515000
" />
<path d="M113727064 135985000
L113272936 135985000
" />
<path d="M146738748 129485000
L147261252 129485000
" />
<path d="M146738748 128015000
L147261252 128015000
" />
<path d="M86690000 37500000
L86690000 36850000
" />
<path d="M89810000 37500000
L89810000 36850000
" />
<path d="M86690000 37500000
L86690000 39175000
" />
<path d="M89810000 37500000
L89810000 38150000
" />
<path d="M132690000 132649622
L132690000 131850378
" />
<path d="M133810000 132649622
L133810000 131850378
" />
<path d="M69800000 75750000
L73700000 75750000
" />
<path d="M69250000 73550000
L69250000 72750000
" />
<path d="M69249956 72750000
L73700000 72750000
" />
<path d="M70772936 78485000
L71227064 78485000
" />
<path d="M70772936 77015000
L71227064 77015000
" />
<path d="M93977064 41985000
L93522936 41985000
" />
<path d="M93977064 40515000
L93522936 40515000
" />
<path d="M149785000 125115000
L145900000 125115000
" />
<path d="M149785000 127385000
L149785000 125115000
" />
<path d="M145900000 127385000
L149785000 127385000
" />
<path d="M133488748 129485000
L134011252 129485000
" />
<path d="M133488748 128015000
L134011252 128015000
" />
</g>
<g style="fill:#000000; fill-opacity:0.0; 
stroke:#000000; stroke-width:200000.000000; stroke-opacity:1; 
stroke-linecap:round; stroke-linejoin:round;">
<path d="M117900000 136350000
L117900000 133650000
" />
<path d="M128100000 136350000
L117900000 136350000
" />
<path d="M128100000 133650000
L128100000 136350000
" />
<path d="M117900000 133650000
L128100000 133650000
" />
</g>
<g style="fill:#000000; fill-opacity:1.0; 
stroke:#000000; stroke-width:1.000000; stroke-opacity:1; 
stroke-linecap:round; stroke-linejoin:round;">
<circle cx="123700000.000000" cy="135900000.000000" r="150000.000000" /> 
</g>
<g style="fill:#000000; fill-opacity:1.0; 
stroke:#000000; stroke-width:120000.000000; stroke-opacity:1; 
stroke-linecap:round; stroke-linejoin:round;">
</g>
<g style="fill:#000000; fill-opacity:0.0; 
stroke:#000000; stroke-width:120000.000000; stroke-opacity:1; 
stroke-linecap:round; stroke-linejoin:round;">
<path d="M98772936 41985000
L99227064 41985000
" />
<path d="M98772936 40515000
L99227064 40515000
" />
<path d="M148240000 33330000
L148240000 30670000
" />
<path d="M135420000 33330000
L135420000 32000000
" />
<path d="M136750000 33330000
L135420000 33330000
" />
<path d="M138020000 33330000
L138020000 30670000
" />
<path d="M138020000 33330000
L148240000 33330000
" />
<path d="M138020000 30670000
L148240000 30670000
" />
<path d="M146738748 131985000
L147261252 131985000
" />
<path d="M146738748 130515000
L147261252 130515000
" />
<path d="M122450000 44750000
L142550000 44750000
" />
<path d="M142550000 44750000
L142550000 122750000
" />
<path d="M142550000 122750000
L122450000 122750000
" />
<path d="M122450000 122750000
L122450000 44750000
" />
<path d="M76950000 44750000
L97050000 44750000
" />
<path d="M97050000 44750000
L97050000 122750000
" />
<path d="M76950000 122750000
L76950000 44750000
" />
<path d="M97050000 122750000
L76950000 122750000
" />
<path d="M95310000 37500000
L95310000 38150000
" />
<path d="M92190000 37500000
L92190000 39175000
" />
<path d="M95310000 37500000
L95310000 36850000
" />
<path d="M92190000 37500000
L92190000 36850000
" />
<path d="M104522936 40515000
L104977064 40515000
" />
<path d="M104522936 41985000
L104977064 41985000
" />
<path d="M105487500 133035000
L104134167 133035000
" />
<path d="M104134167 135935000
L104134167 134665000
" />
<path d="M105487500 135335000
L104134167 135335000
" />
<path d="M105487500 127835000
L104134167 127835000
" />
<path d="M108407500 137720000
L98507500 137720000
" />
<path d="M105487500 129585000
L101427500 129585000
" />
<path d="M105487500 130375000
L104134167 130375000
" />
<path d="M101427500 132125000
L101427500 133395000
" />
<path d="M108647500 137960000
L107263500 137960000
" />
<path d="M105487500 132555000
L104134167 132555000
" />
<path d="M105487500 135695000
L104134167 135695000
" />
<path d="M105487500 127955000
L104134167 127955000
" />
<path d="M105487500 130135000
L104134167 130135000
" />
<path d="M104134167 133395000
L104134167 132125000
" />
<path d="M105487500 129775000
L104134167 129775000
" />
<path d="M105487500 130495000
L104134167 130495000
" />
<path d="M105487500 127715000
L104134167 127715000
" />
<path d="M105487500 135095000
L104134167 135095000
" />
<path d="M105487500 128075000
L104134167 128075000
" />
<path d="M108407500 125260000
L98507500 125260000
" />
<path d="M105487500 132675000
L104134167 132675000
" />
<path d="M105487500 127595000
L104134167 127595000
" />
<path d="M105487500 132435000
L104134167 132435000
" />
<path d="M105487500 132795000
L104134167 132795000
" />
<path d="M105487500 133275000
L104134167 133275000
" />
<path d="M105487500 132195000
L104134167 132195000
" />
<path d="M105487500 127355000
L104134167 127355000
" />
<path d="M105487500 128315000
L105487500 127045000
" />
<path d="M108647500 137960000
L108647500 136577000
" />
<path d="M105487500 134665000
L101427500 134665000
" />
<path d="M101427500 134665000
L101427500 135935000
" />
<path d="M101427500 127045000
L101427500 128315000
" />
<path d="M105487500 130015000
L104134167 130015000
" />
<path d="M104134167 130855000
L104134167 129585000
" />
<path d="M105487500 130855000
L105487500 129585000
" />
<path d="M101427500 135935000
L105487500 135935000
" />
<path d="M105487500 134975000
L104134167 134975000
" />
<path d="M105487500 129655000
L104134167 129655000
" />
<path d="M105487500 129895000
L104134167 129895000
" />
<path d="M105487500 135935000
L105487500 134665000
" />
<path d="M105487500 132915000
L104134167 132915000
" />
<path d="M105487500 132125000
L101427500 132125000
" />
<path d="M105487500 127235000
L104134167 127235000
" />
<path d="M105487500 128195000
L104134167 128195000
" />
<path d="M105487500 127115000
L104134167 127115000
" />
<path d="M105487500 130735000
L104134167 130735000
" />
<path d="M105487500 127475000
L104134167 127475000
" />
<path d="M101427500 128315000
L105487500 128315000
" />
<path d="M105487500 134735000
L104134167 134735000
" />
<path d="M104134167 128315000
L104134167 127045000
" />
<path d="M105487500 130615000
L104134167 130615000
" />
<path d="M105487500 130255000
L104134167 130255000
" />
<path d="M105487500 135815000
L104134167 135815000
" />
<path d="M98507500 137720000
L98507500 125260000
" />
<path d="M108407500 137720000
L108407500 125260000
" />
<path d="M101427500 130855000
L105487500 130855000
" />
<path d="M105487500 134855000
L104134167 134855000
" />
<path d="M105487500 135215000
L104134167 135215000
" />
<path d="M105487500 127045000
L101427500 127045000
" />
<path d="M105487500 135575000
L104134167 135575000
" />
<path d="M105487500 135455000
L104134167 135455000
" />
<path d="M105487500 133155000
L104134167 133155000
" />
<path d="M101427500 129585000
L101427500 130855000
" />
<path d="M105487500 132315000
L104134167 132315000
" />
<path d="M105487500 133395000
L105487500 132125000
" />
<path d="M101427500 133395000
L105487500 133395000
" />
<path d="M87860436 40015000
L88314564 40015000
" />
<path d="M87860436 41485000
L88314564 41485000
" />
<path d="M98272936 32265000
L98727064 32265000
" />
<path d="M98272936 33735000
L98727064 33735000
" />
<path d="M99200000 122750000
L99200000 44750000
" />
<path d="M119300000 44750000
L119300000 122750000
" />
<path d="M119300000 122750000
L99200000 122750000
" />
<path d="M99200000 44750000
L119300000 44750000
" />
<path d="M88314564 42265000
L87860436 42265000
" />
<path d="M88314564 43735000
L87860436 43735000
" />
<path d="M71227064 82485000
L70772936 82485000
" />
<path d="M71227064 81015000
L70772936 81015000
" />
<path d="M136500000 133610000
L139000000 133610000
" />
<path d="M137750000 130890000
L139000000 130890000
" />
<path d="M113727064 127015000
L113272936 127015000
" />
<path d="M113727064 128485000
L113272936 128485000
" />
<path d="M144700000 122750000
L144700000 44750000
" />
<path d="M144700000 44750000
L164800000 44750000
" />
<path d="M164800000 44750000
L164800000 122750000
" />
<path d="M164800000 122750000
L144700000 122750000
" />
<path d="M172080000 81605000
L170750000 81605000
" />
<path d="M169420000 79005000
L169420000 76405000
" />
<path d="M172080000 76405000
L169420000 76405000
" />
<path d="M172080000 79005000
L169420000 79005000
" />
<path d="M172080000 79005000
L172080000 76405000
" />
<path d="M172080000 80275000
L172080000 81605000
" />
<path d="M129620000 42600000
L129620000 43220000
" />
<path d="M111380000 42600000
L111380000 43220000
" />
<path d="M111380000 23780000
L111380000 24200000
" />
<path d="M129620000 43220000
L128620000 43220000
" />
<path d="M111380000 43220000
L112380000 43220000
" />
<path d="M111380000 23780000
L129620000 23780000
" />
<path d="M129620000 23780000
L129620000 24200000
" />
<path d="M111380000 24200000
L111000000 24200000
" />
<path d="M106011252 27235000
L105488748 27235000
" />
<path d="M106011252 25765000
L105488748 25765000
" />
<path d="M119794000 70238000
L120904000 70238000
" />
<path d="M121211530 75503000
L122014000 75503000
" />
<path d="M119794000 70998000
L119794000 70238000
" />
<path d="M122014000 71758000
L122014000 75503000
" />
<path d="M119794000 75503000
L120596470 75503000
" />
<path d="M121467471 71758000
L122014000 71758000
" />
<path d="M119794000 71758000
L119794000 75503000
" />
<path d="M119794000 71758000
L120340529 71758000
" />
<path d="M103738748 33735000
L104261252 33735000
" />
<path d="M103738748 32265000
L104261252 32265000
" />
<g >
</g>
<g >
</g>
<g >
</g>
<g >
</g>
<g >
</g>
<g >
</g>
<g >
</g>
<g >
</g>
<g >
</g>
<g >
</g>
<g >
</g>
<g >
</g>
<g >
</g>
<g >
</g>
<g >
</g>
<g >
</g>
<g >
</g>
<g >
</g>
<g >
</g>
<g >
</g>
<g >
</g>
<g >
</g>
<g >
</g>
<g >
</g>
<g >
</g>
<g >
</g>
<g >
</g>
<g >
</g>
<g >
</g>
<g >
</g>
<g >
</g>
<g >
</g>
<g >
</g>
<g >
</g>
<g >
</g>
<g >
</g>
<g >
</g>
<g >
</g>
<g >
</g>
<g >
</g>
</g> 
</svg>
