<?xml version="1.0" standalone="no"?>
 <!DOCTYPE svg PUBLIC "-//W3C//DTD SVG 1.1//EN" 
 "http://www.w3.org/Graphics/SVG/1.1/DTD/svg11.dtd"> 
<svg
  xmlns:svg="http://www.w3.org/2000/svg"
  xmlns="http://www.w3.org/2000/svg"
  xmlns:xlink="http://www.w3.org/1999/xlink"
  version="1.1"
  width="29.700220cm" height="21.000720cm" viewBox="0 0 297002200 210007200">
<title>SVG Picture created as bt-0801-F_Cu.svg date 2022/08/08 14:39:42 </title>
  <desc>Picture generated by PCBNEW </desc>
<g style="fill:#000000; fill-opacity:1.000000;stroke:#000000; stroke-opacity:1.000000;
stroke-linecap:round; stroke-linejoin:round;"
 transform="translate(0 0) scale(1 1)">
</g>
<g style="fill:#000000; fill-opacity:0.0; 
stroke:#000000; stroke-width:0.000000; stroke-opacity:1; 
stroke-linecap:round; stroke-linejoin:round;">
<g >
</g>
<g style="fill:#000000; fill-opacity:0.0; 
stroke:#000000; stroke-width:1.000000; stroke-opacity:1; 
stroke-linecap:round; stroke-linejoin:round;">
</g>
<g style="fill:#000000; fill-opacity:1.0; 
stroke:#000000; stroke-width:1.000000; stroke-opacity:1; 
stroke-linecap:round; stroke-linejoin:round;">
<path style="fill:#000000; fill-opacity:1.0; 
stroke:#000000; stroke-width:1.000000; stroke-opacity:1; 
stroke-linecap:round; stroke-linejoin:round;fill-rule:evenodd;"
d="M 106150000.000000,36750000.000000
106150000.000000,38250000.000000
104650000.000000,38250000.000000
104650000.000000,36750000.000000
Z" /> 
<path style="fill:#000000; fill-opacity:1.0; 
stroke:#000000; stroke-width:1.000000; stroke-opacity:1; 
stroke-linecap:round; stroke-linejoin:round;fill-rule:evenodd;"
d="M 98350000.000000,36750000.000000
98350000.000000,38250000.000000
96850000.000000,38250000.000000
96850000.000000,36750000.000000
Z" /> 
</g>
<g >
</g>
<g style="fill:#000000; fill-opacity:1.0; 
stroke:#000000; stroke-width:1.000000; stroke-opacity:1; 
stroke-linecap:round; stroke-linejoin:round;">
<path style="fill:#000000; fill-opacity:1.0; 
stroke:#000000; stroke-width:1.000000; stroke-opacity:1; 
stroke-linecap:round; stroke-linejoin:round;fill-rule:evenodd;"
d="M 72425000.000000,80200000.000000
72405970.000000,80295671.000000
72351777.000000,80376777.000000
72270671.000000,80430970.000000
72175000.000000,80450000.000000
71650000.000000,80450000.000000
71554329.000000,80430970.000000
71473223.000000,80376777.000000
71419030.000000,80295671.000000
71400000.000000,80200000.000000
71400000.000000,79300000.000000
71419030.000000,79204329.000000
71473223.000000,79123223.000000
71554329.000000,79069030.000000
71650000.000000,79050000.000000
72175000.000000,79050000.000000
72270671.000000,79069030.000000
72351777.000000,79123223.000000
72405970.000000,79204329.000000
72425000.000000,79300000.000000
Z" /> 
<path style="fill:#000000; fill-opacity:1.0; 
stroke:#000000; stroke-width:1.000000; stroke-opacity:1; 
stroke-linecap:round; stroke-linejoin:round;fill-rule:evenodd;"
d="M 70600000.000000,80200000.000000
70580970.000000,80295671.000000
70526777.000000,80376777.000000
70445671.000000,80430970.000000
70350000.000000,80450000.000000
69825000.000000,80450000.000000
69729329.000000,80430970.000000
69648223.000000,80376777.000000
69594030.000000,80295671.000000
69575000.000000,80200000.000000
69575000.000000,79300000.000000
69594030.000000,79204329.000000
69648223.000000,79123223.000000
69729329.000000,79069030.000000
69825000.000000,79050000.000000
70350000.000000,79050000.000000
70445671.000000,79069030.000000
70526777.000000,79123223.000000
70580970.000000,79204329.000000
70600000.000000,79300000.000000
Z" /> 
</g>
<g >
</g>
<g style="fill:#000000; fill-opacity:1.0; 
stroke:#000000; stroke-width:1.000000; stroke-opacity:1; 
stroke-linecap:round; stroke-linejoin:round;">
<path style="fill:#000000; fill-opacity:1.0; 
stroke:#000000; stroke-width:1.000000; stroke-opacity:1; 
stroke-linecap:round; stroke-linejoin:round;fill-rule:evenodd;"
d="M 114925000.000000,133200000.000000
114905970.000000,133295671.000000
114851777.000000,133376777.000000
114770671.000000,133430970.000000
114675000.000000,133450000.000000
114150000.000000,133450000.000000
114054329.000000,133430970.000000
113973223.000000,133376777.000000
113919030.000000,133295671.000000
113900000.000000,133200000.000000
113900000.000000,132300000.000000
113919030.000000,132204329.000000
113973223.000000,132123223.000000
114054329.000000,132069030.000000
114150000.000000,132050000.000000
114675000.000000,132050000.000000
114770671.000000,132069030.000000
114851777.000000,132123223.000000
114905970.000000,132204329.000000
114925000.000000,132300000.000000
Z" /> 
<path style="fill:#000000; fill-opacity:1.0; 
stroke:#000000; stroke-width:1.000000; stroke-opacity:1; 
stroke-linecap:round; stroke-linejoin:round;fill-rule:evenodd;"
d="M 113100000.000000,133200000.000000
113080970.000000,133295671.000000
113026777.000000,133376777.000000
112945671.000000,133430970.000000
112850000.000000,133450000.000000
112325000.000000,133450000.000000
112229329.000000,133430970.000000
112148223.000000,133376777.000000
112094030.000000,133295671.000000
112075000.000000,133200000.000000
112075000.000000,132300000.000000
112094030.000000,132204329.000000
112148223.000000,132123223.000000
112229329.000000,132069030.000000
112325000.000000,132050000.000000
112850000.000000,132050000.000000
112945671.000000,132069030.000000
113026777.000000,132123223.000000
113080970.000000,132204329.000000
113100000.000000,132300000.000000
Z" /> 
</g>
<g >
</g>
<g style="fill:#000000; fill-opacity:1.0; 
stroke:#000000; stroke-width:1.000000; stroke-opacity:1; 
stroke-linecap:round; stroke-linejoin:round;">
<path style="fill:#000000; fill-opacity:1.0; 
stroke:#000000; stroke-width:1.000000; stroke-opacity:1; 
stroke-linecap:round; stroke-linejoin:round;fill-rule:evenodd;"
d="M 138600000.000000,38750000.000000
138600000.000000,37250000.000000
140100000.000000,37250000.000000
140100000.000000,38750000.000000
Z" /> 
<path style="fill:#000000; fill-opacity:1.0; 
stroke:#000000; stroke-width:1.000000; stroke-opacity:1; 
stroke-linecap:round; stroke-linejoin:round;fill-rule:evenodd;"
d="M 146400000.000000,38750000.000000
146400000.000000,37250000.000000
147900000.000000,37250000.000000
147900000.000000,38750000.000000
Z" /> 
</g>
<g >
</g>
<g style="fill:#000000; fill-opacity:1.0; 
stroke:#000000; stroke-width:1.000000; stroke-opacity:1; 
stroke-linecap:round; stroke-linejoin:round;">
<path style="fill:#000000; fill-opacity:1.0; 
stroke:#000000; stroke-width:1.000000; stroke-opacity:1; 
stroke-linecap:round; stroke-linejoin:round;fill-rule:evenodd;"
d="M 107200000.000000,29225000.000000
107180970.000000,29320671.000000
107126777.000000,29401777.000000
107045671.000000,29455970.000000
106950000.000000,29475000.000000
106450000.000000,29475000.000000
106354329.000000,29455970.000000
106273223.000000,29401777.000000
106219030.000000,29320671.000000
106200000.000000,29225000.000000
106200000.000000,28275000.000000
106219030.000000,28179329.000000
106273223.000000,28098223.000000
106354329.000000,28044030.000000
106450000.000000,28025000.000000
106950000.000000,28025000.000000
107045671.000000,28044030.000000
107126777.000000,28098223.000000
107180970.000000,28179329.000000
107200000.000000,28275000.000000
Z" /> 
<path style="fill:#000000; fill-opacity:1.0; 
stroke:#000000; stroke-width:1.000000; stroke-opacity:1; 
stroke-linecap:round; stroke-linejoin:round;fill-rule:evenodd;"
d="M 105300000.000000,29225000.000000
105280970.000000,29320671.000000
105226777.000000,29401777.000000
105145671.000000,29455970.000000
105050000.000000,29475000.000000
104550000.000000,29475000.000000
104454329.000000,29455970.000000
104373223.000000,29401777.000000
104319030.000000,29320671.000000
104300000.000000,29225000.000000
104300000.000000,28275000.000000
104319030.000000,28179329.000000
104373223.000000,28098223.000000
104454329.000000,28044030.000000
104550000.000000,28025000.000000
105050000.000000,28025000.000000
105145671.000000,28044030.000000
105226777.000000,28098223.000000
105280970.000000,28179329.000000
105300000.000000,28275000.000000
Z" /> 
</g>
<g >
</g>
<g style="fill:#000000; fill-opacity:1.0; 
stroke:#000000; stroke-width:1.000000; stroke-opacity:1; 
stroke-linecap:round; stroke-linejoin:round;">
<path style="fill:#000000; fill-opacity:1.0; 
stroke:#000000; stroke-width:1.000000; stroke-opacity:1; 
stroke-linecap:round; stroke-linejoin:round;fill-rule:evenodd;"
d="M 114925000.000000,130700000.000000
114905970.000000,130795671.000000
114851777.000000,130876777.000000
114770671.000000,130930970.000000
114675000.000000,130950000.000000
114150000.000000,130950000.000000
114054329.000000,130930970.000000
113973223.000000,130876777.000000
113919030.000000,130795671.000000
113900000.000000,130700000.000000
113900000.000000,129800000.000000
113919030.000000,129704329.000000
113973223.000000,129623223.000000
114054329.000000,129569030.000000
114150000.000000,129550000.000000
114675000.000000,129550000.000000
114770671.000000,129569030.000000
114851777.000000,129623223.000000
114905970.000000,129704329.000000
114925000.000000,129800000.000000
Z" /> 
<path style="fill:#000000; fill-opacity:1.0; 
stroke:#000000; stroke-width:1.000000; stroke-opacity:1; 
stroke-linecap:round; stroke-linejoin:round;fill-rule:evenodd;"
d="M 113100000.000000,130700000.000000
113080970.000000,130795671.000000
113026777.000000,130876777.000000
112945671.000000,130930970.000000
112850000.000000,130950000.000000
112325000.000000,130950000.000000
112229329.000000,130930970.000000
112148223.000000,130876777.000000
112094030.000000,130795671.000000
112075000.000000,130700000.000000
112075000.000000,129800000.000000
112094030.000000,129704329.000000
112148223.000000,129623223.000000
112229329.000000,129569030.000000
112325000.000000,129550000.000000
112850000.000000,129550000.000000
112945671.000000,129569030.000000
113026777.000000,129623223.000000
113080970.000000,129704329.000000
113100000.000000,129800000.000000
Z" /> 
</g>
<g >
</g>
<g style="fill:#000000; fill-opacity:1.0; 
stroke:#000000; stroke-width:1.000000; stroke-opacity:1; 
stroke-linecap:round; stroke-linejoin:round;">
<path style="fill:#000000; fill-opacity:1.0; 
stroke:#000000; stroke-width:1.000000; stroke-opacity:1; 
stroke-linecap:round; stroke-linejoin:round;fill-rule:evenodd;"
d="M 114925000.000000,135700000.000000
114905970.000000,135795671.000000
114851777.000000,135876777.000000
114770671.000000,135930970.000000
114675000.000000,135950000.000000
114150000.000000,135950000.000000
114054329.000000,135930970.000000
113973223.000000,135876777.000000
113919030.000000,135795671.000000
113900000.000000,135700000.000000
113900000.000000,134800000.000000
113919030.000000,134704329.000000
113973223.000000,134623223.000000
114054329.000000,134569030.000000
114150000.000000,134550000.000000
114675000.000000,134550000.000000
114770671.000000,134569030.000000
114851777.000000,134623223.000000
114905970.000000,134704329.000000
114925000.000000,134800000.000000
Z" /> 
<path style="fill:#000000; fill-opacity:1.0; 
stroke:#000000; stroke-width:1.000000; stroke-opacity:1; 
stroke-linecap:round; stroke-linejoin:round;fill-rule:evenodd;"
d="M 113100000.000000,135700000.000000
113080970.000000,135795671.000000
113026777.000000,135876777.000000
112945671.000000,135930970.000000
112850000.000000,135950000.000000
112325000.000000,135950000.000000
112229329.000000,135930970.000000
112148223.000000,135876777.000000
112094030.000000,135795671.000000
112075000.000000,135700000.000000
112075000.000000,134800000.000000
112094030.000000,134704329.000000
112148223.000000,134623223.000000
112229329.000000,134569030.000000
112325000.000000,134550000.000000
112850000.000000,134550000.000000
112945671.000000,134569030.000000
113026777.000000,134623223.000000
113080970.000000,134704329.000000
113100000.000000,134800000.000000
Z" /> 
</g>
<g >
</g>
<g style="fill:#000000; fill-opacity:1.0; 
stroke:#000000; stroke-width:1.000000; stroke-opacity:1; 
stroke-linecap:round; stroke-linejoin:round;">
<path style="fill:#000000; fill-opacity:1.0; 
stroke:#000000; stroke-width:1.000000; stroke-opacity:1; 
stroke-linecap:round; stroke-linejoin:round;fill-rule:evenodd;"
d="M 145550000.000000,128275000.000000
145569030.000000,128179329.000000
145623223.000000,128098223.000000
145704329.000000,128044030.000000
145800000.000000,128025000.000000
146300000.000000,128025000.000000
146395671.000000,128044030.000000
146476777.000000,128098223.000000
146530970.000000,128179329.000000
146550000.000000,128275000.000000
146550000.000000,129225000.000000
146530970.000000,129320671.000000
146476777.000000,129401777.000000
146395671.000000,129455970.000000
146300000.000000,129475000.000000
145800000.000000,129475000.000000
145704329.000000,129455970.000000
145623223.000000,129401777.000000
145569030.000000,129320671.000000
145550000.000000,129225000.000000
Z" /> 
<path style="fill:#000000; fill-opacity:1.0; 
stroke:#000000; stroke-width:1.000000; stroke-opacity:1; 
stroke-linecap:round; stroke-linejoin:round;fill-rule:evenodd;"
d="M 147450000.000000,128275000.000000
147469030.000000,128179329.000000
147523223.000000,128098223.000000
147604329.000000,128044030.000000
147700000.000000,128025000.000000
148200000.000000,128025000.000000
148295671.000000,128044030.000000
148376777.000000,128098223.000000
148430970.000000,128179329.000000
148450000.000000,128275000.000000
148450000.000000,129225000.000000
148430970.000000,129320671.000000
148376777.000000,129401777.000000
148295671.000000,129455970.000000
148200000.000000,129475000.000000
147700000.000000,129475000.000000
147604329.000000,129455970.000000
147523223.000000,129401777.000000
147469030.000000,129320671.000000
147450000.000000,129225000.000000
Z" /> 
</g>
<g >
</g>
<g style="fill:#000000; fill-opacity:1.0; 
stroke:#000000; stroke-width:1.000000; stroke-opacity:1; 
stroke-linecap:round; stroke-linejoin:round;">
<path style="fill:#000000; fill-opacity:1.0; 
stroke:#000000; stroke-width:1.000000; stroke-opacity:1; 
stroke-linecap:round; stroke-linejoin:round;fill-rule:evenodd;"
d="M 87150000.000000,39175000.000000
87092597.000000,39163582.000000
87043934.000000,39131066.000000
87011418.000000,39082403.000000
87000000.000000,39025000.000000
87000000.000000,37850000.000000
87011418.000000,37792597.000000
87043934.000000,37743934.000000
87092597.000000,37711418.000000
87150000.000000,37700000.000000
87450000.000000,37700000.000000
87507403.000000,37711418.000000
87556066.000000,37743934.000000
87588582.000000,37792597.000000
87600000.000000,37850000.000000
87600000.000000,39025000.000000
87588582.000000,39082403.000000
87556066.000000,39131066.000000
87507403.000000,39163582.000000
87450000.000000,39175000.000000
Z" /> 
<path style="fill:#000000; fill-opacity:1.0; 
stroke:#000000; stroke-width:1.000000; stroke-opacity:1; 
stroke-linecap:round; stroke-linejoin:round;fill-rule:evenodd;"
d="M 89050000.000000,39175000.000000
88992597.000000,39163582.000000
88943934.000000,39131066.000000
88911418.000000,39082403.000000
88900000.000000,39025000.000000
88900000.000000,37850000.000000
88911418.000000,37792597.000000
88943934.000000,37743934.000000
88992597.000000,37711418.000000
89050000.000000,37700000.000000
89350000.000000,37700000.000000
89407403.000000,37711418.000000
89456066.000000,37743934.000000
89488582.000000,37792597.000000
89500000.000000,37850000.000000
89500000.000000,39025000.000000
89488582.000000,39082403.000000
89456066.000000,39131066.000000
89407403.000000,39163582.000000
89350000.000000,39175000.000000
Z" /> 
<path style="fill:#000000; fill-opacity:1.0; 
stroke:#000000; stroke-width:1.000000; stroke-opacity:1; 
stroke-linecap:round; stroke-linejoin:round;fill-rule:evenodd;"
d="M 88100000.000000,37300000.000000
88042597.000000,37288582.000000
87993934.000000,37256066.000000
87961418.000000,37207403.000000
87950000.000000,37150000.000000
87950000.000000,35975000.000000
87961418.000000,35917597.000000
87993934.000000,35868934.000000
88042597.000000,35836418.000000
88100000.000000,35825000.000000
88400000.000000,35825000.000000
88457403.000000,35836418.000000
88506066.000000,35868934.000000
88538582.000000,35917597.000000
88550000.000000,35975000.000000
88550000.000000,37150000.000000
88538582.000000,37207403.000000
88506066.000000,37256066.000000
88457403.000000,37288582.000000
88400000.000000,37300000.000000
Z" /> 
</g>
<g >
</g>
<g style="fill:#000000; fill-opacity:1.0; 
stroke:#000000; stroke-width:1.000000; stroke-opacity:1; 
stroke-linecap:round; stroke-linejoin:round;">
<path style="fill:#000000; fill-opacity:1.0; 
stroke:#000000; stroke-width:1.000000; stroke-opacity:1; 
stroke-linecap:round; stroke-linejoin:round;fill-rule:evenodd;"
d="M 132868750.000000,133750000.000000
132785038.000000,133733349.000000
132714070.000000,133685930.000000
132666651.000000,133614962.000000
132650000.000000,133531250.000000
132650000.000000,133093750.000000
132666651.000000,133010038.000000
132714070.000000,132939070.000000
132785038.000000,132891651.000000
132868750.000000,132875000.000000
133631250.000000,132875000.000000
133714962.000000,132891651.000000
133785930.000000,132939070.000000
133833349.000000,133010038.000000
133850000.000000,133093750.000000
133850000.000000,133531250.000000
133833349.000000,133614962.000000
133785930.000000,133685930.000000
133714962.000000,133733349.000000
133631250.000000,133750000.000000
Z" /> 
<path style="fill:#000000; fill-opacity:1.0; 
stroke:#000000; stroke-width:1.000000; stroke-opacity:1; 
stroke-linecap:round; stroke-linejoin:round;fill-rule:evenodd;"
d="M 132868750.000000,131625000.000000
132785038.000000,131608349.000000
132714070.000000,131560930.000000
132666651.000000,131489962.000000
132650000.000000,131406250.000000
132650000.000000,130968750.000000
132666651.000000,130885038.000000
132714070.000000,130814070.000000
132785038.000000,130766651.000000
132868750.000000,130750000.000000
133631250.000000,130750000.000000
133714962.000000,130766651.000000
133785930.000000,130814070.000000
133833349.000000,130885038.000000
133850000.000000,130968750.000000
133850000.000000,131406250.000000
133833349.000000,131489962.000000
133785930.000000,131560930.000000
133714962.000000,131608349.000000
133631250.000000,131625000.000000
Z" /> 
</g>
<g >
</g>
<g style="fill:#000000; fill-opacity:1.0; 
stroke:#000000; stroke-width:1.000000; stroke-opacity:1; 
stroke-linecap:round; stroke-linejoin:round;">
<path style="fill:#000000; fill-opacity:1.0; 
stroke:#000000; stroke-width:1.000000; stroke-opacity:1; 
stroke-linecap:round; stroke-linejoin:round;fill-rule:evenodd;"
d="M 69500000.000000,74050000.000000
69500000.000000,72950000.000000
71000000.000000,72950000.000000
71000000.000000,74050000.000000
Z" /> 
<path style="fill:#000000; fill-opacity:1.0; 
stroke:#000000; stroke-width:1.000000; stroke-opacity:1; 
stroke-linecap:round; stroke-linejoin:round;fill-rule:evenodd;"
d="M 72500000.000000,74050000.000000
72500000.000000,72950000.000000
74000000.000000,72950000.000000
74000000.000000,74050000.000000
Z" /> 
<path style="fill:#000000; fill-opacity:1.0; 
stroke:#000000; stroke-width:1.000000; stroke-opacity:1; 
stroke-linecap:round; stroke-linejoin:round;fill-rule:evenodd;"
d="M 72500000.000000,75550000.000000
72500000.000000,74450000.000000
74000000.000000,74450000.000000
74000000.000000,75550000.000000
Z" /> 
<path style="fill:#000000; fill-opacity:1.0; 
stroke:#000000; stroke-width:1.000000; stroke-opacity:1; 
stroke-linecap:round; stroke-linejoin:round;fill-rule:evenodd;"
d="M 69500000.000000,75550000.000000
69500000.000000,74450000.000000
71000000.000000,74450000.000000
71000000.000000,75550000.000000
Z" /> 
</g>
<g >
</g>
<g style="fill:#000000; fill-opacity:1.0; 
stroke:#000000; stroke-width:1.000000; stroke-opacity:1; 
stroke-linecap:round; stroke-linejoin:round;">
<path style="fill:#000000; fill-opacity:1.0; 
stroke:#000000; stroke-width:1.000000; stroke-opacity:1; 
stroke-linecap:round; stroke-linejoin:round;fill-rule:evenodd;"
d="M 69575000.000000,77300000.000000
69594030.000000,77204329.000000
69648223.000000,77123223.000000
69729329.000000,77069030.000000
69825000.000000,77050000.000000
70350000.000000,77050000.000000
70445671.000000,77069030.000000
70526777.000000,77123223.000000
70580970.000000,77204329.000000
70600000.000000,77300000.000000
70600000.000000,78200000.000000
70580970.000000,78295671.000000
70526777.000000,78376777.000000
70445671.000000,78430970.000000
70350000.000000,78450000.000000
69825000.000000,78450000.000000
69729329.000000,78430970.000000
69648223.000000,78376777.000000
69594030.000000,78295671.000000
69575000.000000,78200000.000000
Z" /> 
<path style="fill:#000000; fill-opacity:1.0; 
stroke:#000000; stroke-width:1.000000; stroke-opacity:1; 
stroke-linecap:round; stroke-linejoin:round;fill-rule:evenodd;"
d="M 71400000.000000,77300000.000000
71419030.000000,77204329.000000
71473223.000000,77123223.000000
71554329.000000,77069030.000000
71650000.000000,77050000.000000
72175000.000000,77050000.000000
72270671.000000,77069030.000000
72351777.000000,77123223.000000
72405970.000000,77204329.000000
72425000.000000,77300000.000000
72425000.000000,78200000.000000
72405970.000000,78295671.000000
72351777.000000,78376777.000000
72270671.000000,78430970.000000
72175000.000000,78450000.000000
71650000.000000,78450000.000000
71554329.000000,78430970.000000
71473223.000000,78376777.000000
71419030.000000,78295671.000000
71400000.000000,78200000.000000
Z" /> 
</g>
<g >
</g>
<g style="fill:#000000; fill-opacity:1.0; 
stroke:#000000; stroke-width:1.000000; stroke-opacity:1; 
stroke-linecap:round; stroke-linejoin:round;">
<path style="fill:#000000; fill-opacity:1.0; 
stroke:#000000; stroke-width:1.000000; stroke-opacity:1; 
stroke-linecap:round; stroke-linejoin:round;fill-rule:evenodd;"
d="M 95175000.000000,41700000.000000
95155970.000000,41795671.000000
95101777.000000,41876777.000000
95020671.000000,41930970.000000
94925000.000000,41950000.000000
94400000.000000,41950000.000000
94304329.000000,41930970.000000
94223223.000000,41876777.000000
94169030.000000,41795671.000000
94150000.000000,41700000.000000
94150000.000000,40800000.000000
94169030.000000,40704329.000000
94223223.000000,40623223.000000
94304329.000000,40569030.000000
94400000.000000,40550000.000000
94925000.000000,40550000.000000
95020671.000000,40569030.000000
95101777.000000,40623223.000000
95155970.000000,40704329.000000
95175000.000000,40800000.000000
Z" /> 
<path style="fill:#000000; fill-opacity:1.0; 
stroke:#000000; stroke-width:1.000000; stroke-opacity:1; 
stroke-linecap:round; stroke-linejoin:round;fill-rule:evenodd;"
d="M 93350000.000000,41700000.000000
93330970.000000,41795671.000000
93276777.000000,41876777.000000
93195671.000000,41930970.000000
93100000.000000,41950000.000000
92575000.000000,41950000.000000
92479329.000000,41930970.000000
92398223.000000,41876777.000000
92344030.000000,41795671.000000
92325000.000000,41700000.000000
92325000.000000,40800000.000000
92344030.000000,40704329.000000
92398223.000000,40623223.000000
92479329.000000,40569030.000000
92575000.000000,40550000.000000
93100000.000000,40550000.000000
93195671.000000,40569030.000000
93276777.000000,40623223.000000
93330970.000000,40704329.000000
93350000.000000,40800000.000000
Z" /> 
</g>
<g >
</g>
<g style="fill:#000000; fill-opacity:1.0; 
stroke:#000000; stroke-width:1.000000; stroke-opacity:1; 
stroke-linecap:round; stroke-linejoin:round;">
<path style="fill:#000000; fill-opacity:1.0; 
stroke:#000000; stroke-width:1.000000; stroke-opacity:1; 
stroke-linecap:round; stroke-linejoin:round;fill-rule:evenodd;"
d="M 149525000.000000,126875000.000000
149505970.000000,126970671.000000
149451777.000000,127051777.000000
149370671.000000,127105970.000000
149275000.000000,127125000.000000
148525000.000000,127125000.000000
148429329.000000,127105970.000000
148348223.000000,127051777.000000
148294030.000000,126970671.000000
148275000.000000,126875000.000000
148275000.000000,125625000.000000
148294030.000000,125529329.000000
148348223.000000,125448223.000000
148429329.000000,125394030.000000
148525000.000000,125375000.000000
149275000.000000,125375000.000000
149370671.000000,125394030.000000
149451777.000000,125448223.000000
149505970.000000,125529329.000000
149525000.000000,125625000.000000
Z" /> 
<path style="fill:#000000; fill-opacity:1.0; 
stroke:#000000; stroke-width:1.000000; stroke-opacity:1; 
stroke-linecap:round; stroke-linejoin:round;fill-rule:evenodd;"
d="M 146725000.000000,126875000.000000
146705970.000000,126970671.000000
146651777.000000,127051777.000000
146570671.000000,127105970.000000
146475000.000000,127125000.000000
145725000.000000,127125000.000000
145629329.000000,127105970.000000
145548223.000000,127051777.000000
145494030.000000,126970671.000000
145475000.000000,126875000.000000
145475000.000000,125625000.000000
145494030.000000,125529329.000000
145548223.000000,125448223.000000
145629329.000000,125394030.000000
145725000.000000,125375000.000000
146475000.000000,125375000.000000
146570671.000000,125394030.000000
146651777.000000,125448223.000000
146705970.000000,125529329.000000
146725000.000000,125625000.000000
Z" /> 
</g>
<g >
</g>
<g style="fill:#000000; fill-opacity:1.0; 
stroke:#000000; stroke-width:1.000000; stroke-opacity:1; 
stroke-linecap:round; stroke-linejoin:round;">
<path style="fill:#000000; fill-opacity:1.0; 
stroke:#000000; stroke-width:1.000000; stroke-opacity:1; 
stroke-linecap:round; stroke-linejoin:round;fill-rule:evenodd;"
d="M 132300000.000000,128275000.000000
132319030.000000,128179329.000000
132373223.000000,128098223.000000
132454329.000000,128044030.000000
132550000.000000,128025000.000000
133050000.000000,128025000.000000
133145671.000000,128044030.000000
133226777.000000,128098223.000000
133280970.000000,128179329.000000
133300000.000000,128275000.000000
133300000.000000,129225000.000000
133280970.000000,129320671.000000
133226777.000000,129401777.000000
133145671.000000,129455970.000000
133050000.000000,129475000.000000
132550000.000000,129475000.000000
132454329.000000,129455970.000000
132373223.000000,129401777.000000
132319030.000000,129320671.000000
132300000.000000,129225000.000000
Z" /> 
<path style="fill:#000000; fill-opacity:1.0; 
stroke:#000000; stroke-width:1.000000; stroke-opacity:1; 
stroke-linecap:round; stroke-linejoin:round;fill-rule:evenodd;"
d="M 134200000.000000,128275000.000000
134219030.000000,128179329.000000
134273223.000000,128098223.000000
134354329.000000,128044030.000000
134450000.000000,128025000.000000
134950000.000000,128025000.000000
135045671.000000,128044030.000000
135126777.000000,128098223.000000
135180970.000000,128179329.000000
135200000.000000,128275000.000000
135200000.000000,129225000.000000
135180970.000000,129320671.000000
135126777.000000,129401777.000000
135045671.000000,129455970.000000
134950000.000000,129475000.000000
134450000.000000,129475000.000000
134354329.000000,129455970.000000
134273223.000000,129401777.000000
134219030.000000,129320671.000000
134200000.000000,129225000.000000
Z" /> 
</g>
<g >
</g>
<g style="fill:#000000; fill-opacity:1.0; 
stroke:#000000; stroke-width:1.000000; stroke-opacity:1; 
stroke-linecap:round; stroke-linejoin:round;">
<circle cx="123000000.000000" cy="135000000.000000" r="654000.000000" /> 
</g>
<g style="fill:#000000; fill-opacity:1.0; 
stroke:#000000; stroke-width:21200.000000; stroke-opacity:1; 
stroke-linecap:round; stroke-linejoin:round;">
</g>
<g style="fill:#000000; fill-opacity:1.0; 
stroke:#000000; stroke-width:1.000000; stroke-opacity:1; 
stroke-linecap:round; stroke-linejoin:round;">
<circle cx="125540000.000000" cy="135000000.000000" r="654000.000000" /> 
</g>
<g style="fill:#000000; fill-opacity:1.0; 
stroke:#000000; stroke-width:21200.000000; stroke-opacity:1; 
stroke-linecap:round; stroke-linejoin:round;">
</g>
<g style="fill:#000000; fill-opacity:1.0; 
stroke:#000000; stroke-width:1.000000; stroke-opacity:1; 
stroke-linecap:round; stroke-linejoin:round;">
<circle cx="120460000.000000" cy="135000000.000000" r="654000.000000" /> 
</g>
<g style="fill:#000000; fill-opacity:1.0; 
stroke:#000000; stroke-width:21200.000000; stroke-opacity:1; 
stroke-linecap:round; stroke-linejoin:round;">
</g>
<g >
</g>
<g style="fill:#000000; fill-opacity:1.0; 
stroke:#000000; stroke-width:21200.000000; stroke-opacity:1; 
stroke-linecap:round; stroke-linejoin:round;">
</g>
<g style="fill:#000000; fill-opacity:1.0; 
stroke:#000000; stroke-width:1.000000; stroke-opacity:1; 
stroke-linecap:round; stroke-linejoin:round;">
<path style="fill:#000000; fill-opacity:1.0; 
stroke:#000000; stroke-width:1.000000; stroke-opacity:1; 
stroke-linecap:round; stroke-linejoin:round;fill-rule:evenodd;"
d="M 97575000.000000,40800000.000000
97594030.000000,40704329.000000
97648223.000000,40623223.000000
97729329.000000,40569030.000000
97825000.000000,40550000.000000
98350000.000000,40550000.000000
98445671.000000,40569030.000000
98526777.000000,40623223.000000
98580970.000000,40704329.000000
98600000.000000,40800000.000000
98600000.000000,41700000.000000
98580970.000000,41795671.000000
98526777.000000,41876777.000000
98445671.000000,41930970.000000
98350000.000000,41950000.000000
97825000.000000,41950000.000000
97729329.000000,41930970.000000
97648223.000000,41876777.000000
97594030.000000,41795671.000000
97575000.000000,41700000.000000
Z" /> 
<path style="fill:#000000; fill-opacity:1.0; 
stroke:#000000; stroke-width:1.000000; stroke-opacity:1; 
stroke-linecap:round; stroke-linejoin:round;fill-rule:evenodd;"
d="M 99400000.000000,40800000.000000
99419030.000000,40704329.000000
99473223.000000,40623223.000000
99554329.000000,40569030.000000
99650000.000000,40550000.000000
100175000.000000,40550000.000000
100270671.000000,40569030.000000
100351777.000000,40623223.000000
100405970.000000,40704329.000000
100425000.000000,40800000.000000
100425000.000000,41700000.000000
100405970.000000,41795671.000000
100351777.000000,41876777.000000
100270671.000000,41930970.000000
100175000.000000,41950000.000000
99650000.000000,41950000.000000
99554329.000000,41930970.000000
99473223.000000,41876777.000000
99419030.000000,41795671.000000
99400000.000000,41700000.000000
Z" /> 
</g>
<g >
</g>
<g style="fill:#000000; fill-opacity:1.0; 
stroke:#000000; stroke-width:1.000000; stroke-opacity:1; 
stroke-linecap:round; stroke-linejoin:round;">
<path style="fill:#000000; fill-opacity:1.0; 
stroke:#000000; stroke-width:1.000000; stroke-opacity:1; 
stroke-linecap:round; stroke-linejoin:round;fill-rule:evenodd;"
d="M 137600000.000000,32850000.000000
135900000.000000,32850000.000000
135900000.000000,31150000.000000
137600000.000000,31150000.000000
Z" /> 
<circle cx="139290000.000000" cy="32000000.000000" r="850000.000000" /> 
<circle cx="141830000.000000" cy="32000000.000000" r="850000.000000" /> 
<circle cx="144370000.000000" cy="32000000.000000" r="850000.000000" /> 
<circle cx="146910000.000000" cy="32000000.000000" r="850000.000000" /> 
</g>
<g >
</g>
<g style="fill:#000000; fill-opacity:1.0; 
stroke:#000000; stroke-width:1.000000; stroke-opacity:1; 
stroke-linecap:round; stroke-linejoin:round;">
<path style="fill:#000000; fill-opacity:1.0; 
stroke:#000000; stroke-width:1.000000; stroke-opacity:1; 
stroke-linecap:round; stroke-linejoin:round;fill-rule:evenodd;"
d="M 145550000.000000,130775000.000000
145569030.000000,130679329.000000
145623223.000000,130598223.000000
145704329.000000,130544030.000000
145800000.000000,130525000.000000
146300000.000000,130525000.000000
146395671.000000,130544030.000000
146476777.000000,130598223.000000
146530970.000000,130679329.000000
146550000.000000,130775000.000000
146550000.000000,131725000.000000
146530970.000000,131820671.000000
146476777.000000,131901777.000000
146395671.000000,131955970.000000
146300000.000000,131975000.000000
145800000.000000,131975000.000000
145704329.000000,131955970.000000
145623223.000000,131901777.000000
145569030.000000,131820671.000000
145550000.000000,131725000.000000
Z" /> 
<path style="fill:#000000; fill-opacity:1.0; 
stroke:#000000; stroke-width:1.000000; stroke-opacity:1; 
stroke-linecap:round; stroke-linejoin:round;fill-rule:evenodd;"
d="M 147450000.000000,130775000.000000
147469030.000000,130679329.000000
147523223.000000,130598223.000000
147604329.000000,130544030.000000
147700000.000000,130525000.000000
148200000.000000,130525000.000000
148295671.000000,130544030.000000
148376777.000000,130598223.000000
148430970.000000,130679329.000000
148450000.000000,130775000.000000
148450000.000000,131725000.000000
148430970.000000,131820671.000000
148376777.000000,131901777.000000
148295671.000000,131955970.000000
148200000.000000,131975000.000000
147700000.000000,131975000.000000
147604329.000000,131955970.000000
147523223.000000,131901777.000000
147469030.000000,131820671.000000
147450000.000000,131725000.000000
Z" /> 
</g>
<g >
</g>
<g style="fill:#000000; fill-opacity:1.0; 
stroke:#000000; stroke-width:1.000000; stroke-opacity:1; 
stroke-linecap:round; stroke-linejoin:round;">
<path style="fill:#000000; fill-opacity:1.0; 
stroke:#000000; stroke-width:1.000000; stroke-opacity:1; 
stroke-linecap:round; stroke-linejoin:round;fill-rule:evenodd;"
d="M 134250000.000000,121500000.000000
130750000.000000,121500000.000000
130750000.000000,118000000.000000
134250000.000000,118000000.000000
Z" /> 
<circle cx="132500000.000000" cy="47750000.000000" r="1750000.000000" /> 
</g>
<g style="fill:#000000; fill-opacity:1.0; 
stroke:#000000; stroke-width:21200.000000; stroke-opacity:1; 
stroke-linecap:round; stroke-linejoin:round;">
</g>
<g >
</g>
<g style="fill:#000000; fill-opacity:1.0; 
stroke:#000000; stroke-width:21200.000000; stroke-opacity:1; 
stroke-linecap:round; stroke-linejoin:round;">
</g>
<g style="fill:#000000; fill-opacity:1.0; 
stroke:#000000; stroke-width:1.000000; stroke-opacity:1; 
stroke-linecap:round; stroke-linejoin:round;">
<path style="fill:#000000; fill-opacity:1.0; 
stroke:#000000; stroke-width:1.000000; stroke-opacity:1; 
stroke-linecap:round; stroke-linejoin:round;fill-rule:evenodd;"
d="M 88750000.000000,121500000.000000
85250000.000000,121500000.000000
85250000.000000,118000000.000000
88750000.000000,118000000.000000
Z" /> 
<circle cx="87000000.000000" cy="47750000.000000" r="1750000.000000" /> 
</g>
<g style="fill:#000000; fill-opacity:1.0; 
stroke:#000000; stroke-width:21200.000000; stroke-opacity:1; 
stroke-linecap:round; stroke-linejoin:round;">
</g>
<g >
</g>
<g style="fill:#000000; fill-opacity:1.0; 
stroke:#000000; stroke-width:21200.000000; stroke-opacity:1; 
stroke-linecap:round; stroke-linejoin:round;">
</g>
<g style="fill:#000000; fill-opacity:1.0; 
stroke:#000000; stroke-width:1.000000; stroke-opacity:1; 
stroke-linecap:round; stroke-linejoin:round;">
<path style="fill:#000000; fill-opacity:1.0; 
stroke:#000000; stroke-width:1.000000; stroke-opacity:1; 
stroke-linecap:round; stroke-linejoin:round;fill-rule:evenodd;"
d="M 92650000.000000,39175000.000000
92592597.000000,39163582.000000
92543934.000000,39131066.000000
92511418.000000,39082403.000000
92500000.000000,39025000.000000
92500000.000000,37850000.000000
92511418.000000,37792597.000000
92543934.000000,37743934.000000
92592597.000000,37711418.000000
92650000.000000,37700000.000000
92950000.000000,37700000.000000
93007403.000000,37711418.000000
93056066.000000,37743934.000000
93088582.000000,37792597.000000
93100000.000000,37850000.000000
93100000.000000,39025000.000000
93088582.000000,39082403.000000
93056066.000000,39131066.000000
93007403.000000,39163582.000000
92950000.000000,39175000.000000
Z" /> 
<path style="fill:#000000; fill-opacity:1.0; 
stroke:#000000; stroke-width:1.000000; stroke-opacity:1; 
stroke-linecap:round; stroke-linejoin:round;fill-rule:evenodd;"
d="M 94550000.000000,39175000.000000
94492597.000000,39163582.000000
94443934.000000,39131066.000000
94411418.000000,39082403.000000
94400000.000000,39025000.000000
94400000.000000,37850000.000000
94411418.000000,37792597.000000
94443934.000000,37743934.000000
94492597.000000,37711418.000000
94550000.000000,37700000.000000
94850000.000000,37700000.000000
94907403.000000,37711418.000000
94956066.000000,37743934.000000
94988582.000000,37792597.000000
95000000.000000,37850000.000000
95000000.000000,39025000.000000
94988582.000000,39082403.000000
94956066.000000,39131066.000000
94907403.000000,39163582.000000
94850000.000000,39175000.000000
Z" /> 
<path style="fill:#000000; fill-opacity:1.0; 
stroke:#000000; stroke-width:1.000000; stroke-opacity:1; 
stroke-linecap:round; stroke-linejoin:round;fill-rule:evenodd;"
d="M 93600000.000000,37300000.000000
93542597.000000,37288582.000000
93493934.000000,37256066.000000
93461418.000000,37207403.000000
93450000.000000,37150000.000000
93450000.000000,35975000.000000
93461418.000000,35917597.000000
93493934.000000,35868934.000000
93542597.000000,35836418.000000
93600000.000000,35825000.000000
93900000.000000,35825000.000000
93957403.000000,35836418.000000
94006066.000000,35868934.000000
94038582.000000,35917597.000000
94050000.000000,35975000.000000
94050000.000000,37150000.000000
94038582.000000,37207403.000000
94006066.000000,37256066.000000
93957403.000000,37288582.000000
93900000.000000,37300000.000000
Z" /> 
</g>
<g >
</g>
<g style="fill:#000000; fill-opacity:1.0; 
stroke:#000000; stroke-width:1.000000; stroke-opacity:1; 
stroke-linecap:round; stroke-linejoin:round;">
<path style="fill:#000000; fill-opacity:1.0; 
stroke:#000000; stroke-width:1.000000; stroke-opacity:1; 
stroke-linecap:round; stroke-linejoin:round;fill-rule:evenodd;"
d="M 103325000.000000,40800000.000000
103344030.000000,40704329.000000
103398223.000000,40623223.000000
103479329.000000,40569030.000000
103575000.000000,40550000.000000
104100000.000000,40550000.000000
104195671.000000,40569030.000000
104276777.000000,40623223.000000
104330970.000000,40704329.000000
104350000.000000,40800000.000000
104350000.000000,41700000.000000
104330970.000000,41795671.000000
104276777.000000,41876777.000000
104195671.000000,41930970.000000
104100000.000000,41950000.000000
103575000.000000,41950000.000000
103479329.000000,41930970.000000
103398223.000000,41876777.000000
103344030.000000,41795671.000000
103325000.000000,41700000.000000
Z" /> 
<path style="fill:#000000; fill-opacity:1.0; 
stroke:#000000; stroke-width:1.000000; stroke-opacity:1; 
stroke-linecap:round; stroke-linejoin:round;fill-rule:evenodd;"
d="M 105150000.000000,40800000.000000
105169030.000000,40704329.000000
105223223.000000,40623223.000000
105304329.000000,40569030.000000
105400000.000000,40550000.000000
105925000.000000,40550000.000000
106020671.000000,40569030.000000
106101777.000000,40623223.000000
106155970.000000,40704329.000000
106175000.000000,40800000.000000
106175000.000000,41700000.000000
106155970.000000,41795671.000000
106101777.000000,41876777.000000
106020671.000000,41930970.000000
105925000.000000,41950000.000000
105400000.000000,41950000.000000
105304329.000000,41930970.000000
105223223.000000,41876777.000000
105169030.000000,41795671.000000
105150000.000000,41700000.000000
Z" /> 
</g>
<g >
</g>
<g style="fill:#000000; fill-opacity:1.0; 
stroke:#000000; stroke-width:1.000000; stroke-opacity:1; 
stroke-linecap:round; stroke-linejoin:round;">
<path style="fill:#000000; fill-opacity:1.0; 
stroke:#000000; stroke-width:1.000000; stroke-opacity:1; 
stroke-linecap:round; stroke-linejoin:round;fill-rule:evenodd;"
d="M 108067500.000000,134500000.000000
108067500.000000,136100000.000000
106467500.000000,136100000.000000
106467500.000000,134500000.000000
Z" /> 
<circle cx="107267500.000000" cy="132760000.000000" r="800000.000000" /> 
<circle cx="107267500.000000" cy="130220000.000000" r="800000.000000" /> 
<circle cx="107267500.000000" cy="127680000.000000" r="800000.000000" /> 
<circle cx="99647500.000000" cy="127680000.000000" r="800000.000000" /> 
<circle cx="99647500.000000" cy="130220000.000000" r="800000.000000" /> 
<circle cx="99647500.000000" cy="132760000.000000" r="800000.000000" /> 
<circle cx="99647500.000000" cy="135300000.000000" r="800000.000000" /> 
</g>
<g >
</g>
<g style="fill:#000000; fill-opacity:1.0; 
stroke:#000000; stroke-width:1.000000; stroke-opacity:1; 
stroke-linecap:round; stroke-linejoin:round;">
<path style="fill:#000000; fill-opacity:1.0; 
stroke:#000000; stroke-width:1.000000; stroke-opacity:1; 
stroke-linecap:round; stroke-linejoin:round;fill-rule:evenodd;"
d="M 86662500.000000,40300000.000000
86681530.000000,40204329.000000
86735723.000000,40123223.000000
86816829.000000,40069030.000000
86912500.000000,40050000.000000
87437500.000000,40050000.000000
87533171.000000,40069030.000000
87614277.000000,40123223.000000
87668470.000000,40204329.000000
87687500.000000,40300000.000000
87687500.000000,41200000.000000
87668470.000000,41295671.000000
87614277.000000,41376777.000000
87533171.000000,41430970.000000
87437500.000000,41450000.000000
86912500.000000,41450000.000000
86816829.000000,41430970.000000
86735723.000000,41376777.000000
86681530.000000,41295671.000000
86662500.000000,41200000.000000
Z" /> 
<path style="fill:#000000; fill-opacity:1.0; 
stroke:#000000; stroke-width:1.000000; stroke-opacity:1; 
stroke-linecap:round; stroke-linejoin:round;fill-rule:evenodd;"
d="M 88487500.000000,40300000.000000
88506530.000000,40204329.000000
88560723.000000,40123223.000000
88641829.000000,40069030.000000
88737500.000000,40050000.000000
89262500.000000,40050000.000000
89358171.000000,40069030.000000
89439277.000000,40123223.000000
89493470.000000,40204329.000000
89512500.000000,40300000.000000
89512500.000000,41200000.000000
89493470.000000,41295671.000000
89439277.000000,41376777.000000
89358171.000000,41430970.000000
89262500.000000,41450000.000000
88737500.000000,41450000.000000
88641829.000000,41430970.000000
88560723.000000,41376777.000000
88506530.000000,41295671.000000
88487500.000000,41200000.000000
Z" /> 
</g>
<g >
</g>
<g style="fill:#000000; fill-opacity:1.0; 
stroke:#000000; stroke-width:1.000000; stroke-opacity:1; 
stroke-linecap:round; stroke-linejoin:round;">
<path style="fill:#000000; fill-opacity:1.0; 
stroke:#000000; stroke-width:1.000000; stroke-opacity:1; 
stroke-linecap:round; stroke-linejoin:round;fill-rule:evenodd;"
d="M 97075000.000000,32550000.000000
97094030.000000,32454329.000000
97148223.000000,32373223.000000
97229329.000000,32319030.000000
97325000.000000,32300000.000000
97850000.000000,32300000.000000
97945671.000000,32319030.000000
98026777.000000,32373223.000000
98080970.000000,32454329.000000
98100000.000000,32550000.000000
98100000.000000,33450000.000000
98080970.000000,33545671.000000
98026777.000000,33626777.000000
97945671.000000,33680970.000000
97850000.000000,33700000.000000
97325000.000000,33700000.000000
97229329.000000,33680970.000000
97148223.000000,33626777.000000
97094030.000000,33545671.000000
97075000.000000,33450000.000000
Z" /> 
<path style="fill:#000000; fill-opacity:1.0; 
stroke:#000000; stroke-width:1.000000; stroke-opacity:1; 
stroke-linecap:round; stroke-linejoin:round;fill-rule:evenodd;"
d="M 98900000.000000,32550000.000000
98919030.000000,32454329.000000
98973223.000000,32373223.000000
99054329.000000,32319030.000000
99150000.000000,32300000.000000
99675000.000000,32300000.000000
99770671.000000,32319030.000000
99851777.000000,32373223.000000
99905970.000000,32454329.000000
99925000.000000,32550000.000000
99925000.000000,33450000.000000
99905970.000000,33545671.000000
99851777.000000,33626777.000000
99770671.000000,33680970.000000
99675000.000000,33700000.000000
99150000.000000,33700000.000000
99054329.000000,33680970.000000
98973223.000000,33626777.000000
98919030.000000,33545671.000000
98900000.000000,33450000.000000
Z" /> 
</g>
<g >
</g>
<g style="fill:#000000; fill-opacity:1.0; 
stroke:#000000; stroke-width:1.000000; stroke-opacity:1; 
stroke-linecap:round; stroke-linejoin:round;">
<path style="fill:#000000; fill-opacity:1.0; 
stroke:#000000; stroke-width:1.000000; stroke-opacity:1; 
stroke-linecap:round; stroke-linejoin:round;fill-rule:evenodd;"
d="M 111000000.000000,121500000.000000
107500000.000000,121500000.000000
107500000.000000,118000000.000000
111000000.000000,118000000.000000
Z" /> 
<circle cx="109250000.000000" cy="47750000.000000" r="1750000.000000" /> 
</g>
<g style="fill:#000000; fill-opacity:1.0; 
stroke:#000000; stroke-width:21200.000000; stroke-opacity:1; 
stroke-linecap:round; stroke-linejoin:round;">
</g>
<g >
</g>
<g style="fill:#000000; fill-opacity:1.0; 
stroke:#000000; stroke-width:21200.000000; stroke-opacity:1; 
stroke-linecap:round; stroke-linejoin:round;">
</g>
<g style="fill:#000000; fill-opacity:1.0; 
stroke:#000000; stroke-width:1.000000; stroke-opacity:1; 
stroke-linecap:round; stroke-linejoin:round;">
<path style="fill:#000000; fill-opacity:1.0; 
stroke:#000000; stroke-width:1.000000; stroke-opacity:1; 
stroke-linecap:round; stroke-linejoin:round;fill-rule:evenodd;"
d="M 89512500.000000,43450000.000000
89493470.000000,43545671.000000
89439277.000000,43626777.000000
89358171.000000,43680970.000000
89262500.000000,43700000.000000
88737500.000000,43700000.000000
88641829.000000,43680970.000000
88560723.000000,43626777.000000
88506530.000000,43545671.000000
88487500.000000,43450000.000000
88487500.000000,42550000.000000
88506530.000000,42454329.000000
88560723.000000,42373223.000000
88641829.000000,42319030.000000
88737500.000000,42300000.000000
89262500.000000,42300000.000000
89358171.000000,42319030.000000
89439277.000000,42373223.000000
89493470.000000,42454329.000000
89512500.000000,42550000.000000
Z" /> 
<path style="fill:#000000; fill-opacity:1.0; 
stroke:#000000; stroke-width:1.000000; stroke-opacity:1; 
stroke-linecap:round; stroke-linejoin:round;fill-rule:evenodd;"
d="M 87687500.000000,43450000.000000
87668470.000000,43545671.000000
87614277.000000,43626777.000000
87533171.000000,43680970.000000
87437500.000000,43700000.000000
86912500.000000,43700000.000000
86816829.000000,43680970.000000
86735723.000000,43626777.000000
86681530.000000,43545671.000000
86662500.000000,43450000.000000
86662500.000000,42550000.000000
86681530.000000,42454329.000000
86735723.000000,42373223.000000
86816829.000000,42319030.000000
86912500.000000,42300000.000000
87437500.000000,42300000.000000
87533171.000000,42319030.000000
87614277.000000,42373223.000000
87668470.000000,42454329.000000
87687500.000000,42550000.000000
Z" /> 
</g>
<g >
</g>
<g style="fill:#000000; fill-opacity:1.0; 
stroke:#000000; stroke-width:1.000000; stroke-opacity:1; 
stroke-linecap:round; stroke-linejoin:round;">
<path style="fill:#000000; fill-opacity:1.0; 
stroke:#000000; stroke-width:1.000000; stroke-opacity:1; 
stroke-linecap:round; stroke-linejoin:round;fill-rule:evenodd;"
d="M 72425000.000000,82200000.000000
72405970.000000,82295671.000000
72351777.000000,82376777.000000
72270671.000000,82430970.000000
72175000.000000,82450000.000000
71650000.000000,82450000.000000
71554329.000000,82430970.000000
71473223.000000,82376777.000000
71419030.000000,82295671.000000
71400000.000000,82200000.000000
71400000.000000,81300000.000000
71419030.000000,81204329.000000
71473223.000000,81123223.000000
71554329.000000,81069030.000000
71650000.000000,81050000.000000
72175000.000000,81050000.000000
72270671.000000,81069030.000000
72351777.000000,81123223.000000
72405970.000000,81204329.000000
72425000.000000,81300000.000000
Z" /> 
<path style="fill:#000000; fill-opacity:1.0; 
stroke:#000000; stroke-width:1.000000; stroke-opacity:1; 
stroke-linecap:round; stroke-linejoin:round;fill-rule:evenodd;"
d="M 70600000.000000,82200000.000000
70580970.000000,82295671.000000
70526777.000000,82376777.000000
70445671.000000,82430970.000000
70350000.000000,82450000.000000
69825000.000000,82450000.000000
69729329.000000,82430970.000000
69648223.000000,82376777.000000
69594030.000000,82295671.000000
69575000.000000,82200000.000000
69575000.000000,81300000.000000
69594030.000000,81204329.000000
69648223.000000,81123223.000000
69729329.000000,81069030.000000
69825000.000000,81050000.000000
70350000.000000,81050000.000000
70445671.000000,81069030.000000
70526777.000000,81123223.000000
70580970.000000,81204329.000000
70600000.000000,81300000.000000
Z" /> 
</g>
<g >
</g>
<g style="fill:#000000; fill-opacity:1.0; 
stroke:#000000; stroke-width:1.000000; stroke-opacity:1; 
stroke-linecap:round; stroke-linejoin:round;">
<path style="fill:#000000; fill-opacity:1.0; 
stroke:#000000; stroke-width:1.000000; stroke-opacity:1; 
stroke-linecap:round; stroke-linejoin:round;fill-rule:evenodd;"
d="M 136125000.000000,131187500.000000
136129758.000000,131163582.000000
136143306.000000,131143306.000000
136163582.000000,131129758.000000
136187500.000000,131125000.000000
136887500.000000,131125000.000000
136911418.000000,131129758.000000
136931694.000000,131143306.000000
136945242.000000,131163582.000000
136950000.000000,131187500.000000
136950000.000000,131312500.000000
136945242.000000,131336418.000000
136931694.000000,131356694.000000
136911418.000000,131370242.000000
136887500.000000,131375000.000000
136187500.000000,131375000.000000
136163582.000000,131370242.000000
136143306.000000,131356694.000000
136129758.000000,131336418.000000
136125000.000000,131312500.000000
Z" /> 
<path style="fill:#000000; fill-opacity:1.0; 
stroke:#000000; stroke-width:1.000000; stroke-opacity:1; 
stroke-linecap:round; stroke-linejoin:round;fill-rule:evenodd;"
d="M 136125000.000000,131687500.000000
136129758.000000,131663582.000000
136143306.000000,131643306.000000
136163582.000000,131629758.000000
136187500.000000,131625000.000000
136887500.000000,131625000.000000
136911418.000000,131629758.000000
136931694.000000,131643306.000000
136945242.000000,131663582.000000
136950000.000000,131687500.000000
136950000.000000,131812500.000000
136945242.000000,131836418.000000
136931694.000000,131856694.000000
136911418.000000,131870242.000000
136887500.000000,131875000.000000
136187500.000000,131875000.000000
136163582.000000,131870242.000000
136143306.000000,131856694.000000
136129758.000000,131836418.000000
136125000.000000,131812500.000000
Z" /> 
<path style="fill:#000000; fill-opacity:1.0; 
stroke:#000000; stroke-width:1.000000; stroke-opacity:1; 
stroke-linecap:round; stroke-linejoin:round;fill-rule:evenodd;"
d="M 136125000.000000,132187500.000000
136129758.000000,132163582.000000
136143306.000000,132143306.000000
136163582.000000,132129758.000000
136187500.000000,132125000.000000
136887500.000000,132125000.000000
136911418.000000,132129758.000000
136931694.000000,132143306.000000
136945242.000000,132163582.000000
136950000.000000,132187500.000000
136950000.000000,132312500.000000
136945242.000000,132336418.000000
136931694.000000,132356694.000000
136911418.000000,132370242.000000
136887500.000000,132375000.000000
136187500.000000,132375000.000000
136163582.000000,132370242.000000
136143306.000000,132356694.000000
136129758.000000,132336418.000000
136125000.000000,132312500.000000
Z" /> 
<path style="fill:#000000; fill-opacity:1.0; 
stroke:#000000; stroke-width:1.000000; stroke-opacity:1; 
stroke-linecap:round; stroke-linejoin:round;fill-rule:evenodd;"
d="M 136125000.000000,132687500.000000
136129758.000000,132663582.000000
136143306.000000,132643306.000000
136163582.000000,132629758.000000
136187500.000000,132625000.000000
136887500.000000,132625000.000000
136911418.000000,132629758.000000
136931694.000000,132643306.000000
136945242.000000,132663582.000000
136950000.000000,132687500.000000
136950000.000000,132812500.000000
136945242.000000,132836418.000000
136931694.000000,132856694.000000
136911418.000000,132870242.000000
136887500.000000,132875000.000000
136187500.000000,132875000.000000
136163582.000000,132870242.000000
136143306.000000,132856694.000000
136129758.000000,132836418.000000
136125000.000000,132812500.000000
Z" /> 
<path style="fill:#000000; fill-opacity:1.0; 
stroke:#000000; stroke-width:1.000000; stroke-opacity:1; 
stroke-linecap:round; stroke-linejoin:round;fill-rule:evenodd;"
d="M 136125000.000000,133187500.000000
136129758.000000,133163582.000000
136143306.000000,133143306.000000
136163582.000000,133129758.000000
136187500.000000,133125000.000000
136887500.000000,133125000.000000
136911418.000000,133129758.000000
136931694.000000,133143306.000000
136945242.000000,133163582.000000
136950000.000000,133187500.000000
136950000.000000,133312500.000000
136945242.000000,133336418.000000
136931694.000000,133356694.000000
136911418.000000,133370242.000000
136887500.000000,133375000.000000
136187500.000000,133375000.000000
136163582.000000,133370242.000000
136143306.000000,133356694.000000
136129758.000000,133336418.000000
136125000.000000,133312500.000000
Z" /> 
<path style="fill:#000000; fill-opacity:1.0; 
stroke:#000000; stroke-width:1.000000; stroke-opacity:1; 
stroke-linecap:round; stroke-linejoin:round;fill-rule:evenodd;"
d="M 138550000.000000,133187500.000000
138554758.000000,133163582.000000
138568306.000000,133143306.000000
138588582.000000,133129758.000000
138612500.000000,133125000.000000
139312500.000000,133125000.000000
139336418.000000,133129758.000000
139356694.000000,133143306.000000
139370242.000000,133163582.000000
139375000.000000,133187500.000000
139375000.000000,133312500.000000
139370242.000000,133336418.000000
139356694.000000,133356694.000000
139336418.000000,133370242.000000
139312500.000000,133375000.000000
138612500.000000,133375000.000000
138588582.000000,133370242.000000
138568306.000000,133356694.000000
138554758.000000,133336418.000000
138550000.000000,133312500.000000
Z" /> 
<path style="fill:#000000; fill-opacity:1.0; 
stroke:#000000; stroke-width:1.000000; stroke-opacity:1; 
stroke-linecap:round; stroke-linejoin:round;fill-rule:evenodd;"
d="M 138550000.000000,132687500.000000
138554758.000000,132663582.000000
138568306.000000,132643306.000000
138588582.000000,132629758.000000
138612500.000000,132625000.000000
139312500.000000,132625000.000000
139336418.000000,132629758.000000
139356694.000000,132643306.000000
139370242.000000,132663582.000000
139375000.000000,132687500.000000
139375000.000000,132812500.000000
139370242.000000,132836418.000000
139356694.000000,132856694.000000
139336418.000000,132870242.000000
139312500.000000,132875000.000000
138612500.000000,132875000.000000
138588582.000000,132870242.000000
138568306.000000,132856694.000000
138554758.000000,132836418.000000
138550000.000000,132812500.000000
Z" /> 
<path style="fill:#000000; fill-opacity:1.0; 
stroke:#000000; stroke-width:1.000000; stroke-opacity:1; 
stroke-linecap:round; stroke-linejoin:round;fill-rule:evenodd;"
d="M 138550000.000000,132187500.000000
138554758.000000,132163582.000000
138568306.000000,132143306.000000
138588582.000000,132129758.000000
138612500.000000,132125000.000000
139312500.000000,132125000.000000
139336418.000000,132129758.000000
139356694.000000,132143306.000000
139370242.000000,132163582.000000
139375000.000000,132187500.000000
139375000.000000,132312500.000000
139370242.000000,132336418.000000
139356694.000000,132356694.000000
139336418.000000,132370242.000000
139312500.000000,132375000.000000
138612500.000000,132375000.000000
138588582.000000,132370242.000000
138568306.000000,132356694.000000
138554758.000000,132336418.000000
138550000.000000,132312500.000000
Z" /> 
<path style="fill:#000000; fill-opacity:1.0; 
stroke:#000000; stroke-width:1.000000; stroke-opacity:1; 
stroke-linecap:round; stroke-linejoin:round;fill-rule:evenodd;"
d="M 138550000.000000,131687500.000000
138554758.000000,131663582.000000
138568306.000000,131643306.000000
138588582.000000,131629758.000000
138612500.000000,131625000.000000
139312500.000000,131625000.000000
139336418.000000,131629758.000000
139356694.000000,131643306.000000
139370242.000000,131663582.000000
139375000.000000,131687500.000000
139375000.000000,131812500.000000
139370242.000000,131836418.000000
139356694.000000,131856694.000000
139336418.000000,131870242.000000
139312500.000000,131875000.000000
138612500.000000,131875000.000000
138588582.000000,131870242.000000
138568306.000000,131856694.000000
138554758.000000,131836418.000000
138550000.000000,131812500.000000
Z" /> 
<path style="fill:#000000; fill-opacity:1.0; 
stroke:#000000; stroke-width:1.000000; stroke-opacity:1; 
stroke-linecap:round; stroke-linejoin:round;fill-rule:evenodd;"
d="M 138550000.000000,131187500.000000
138554758.000000,131163582.000000
138568306.000000,131143306.000000
138588582.000000,131129758.000000
138612500.000000,131125000.000000
139312500.000000,131125000.000000
139336418.000000,131129758.000000
139356694.000000,131143306.000000
139370242.000000,131163582.000000
139375000.000000,131187500.000000
139375000.000000,131312500.000000
139370242.000000,131336418.000000
139356694.000000,131356694.000000
139336418.000000,131370242.000000
139312500.000000,131375000.000000
138612500.000000,131375000.000000
138588582.000000,131370242.000000
138568306.000000,131356694.000000
138554758.000000,131336418.000000
138550000.000000,131312500.000000
Z" /> 
<path style="fill:#000000; fill-opacity:1.0; 
stroke:#000000; stroke-width:1.000000; stroke-opacity:1; 
stroke-linecap:round; stroke-linejoin:round;fill-rule:evenodd;"
d="M 137150000.000000,133250000.000000
137150000.000000,131250000.000000
138350000.000000,131250000.000000
138350000.000000,133250000.000000
Z" /> 
</g>
<g >
</g>
<g style="fill:#000000; fill-opacity:1.0; 
stroke:#000000; stroke-width:1.000000; stroke-opacity:1; 
stroke-linecap:round; stroke-linejoin:round;">
<path style="fill:#000000; fill-opacity:1.0; 
stroke:#000000; stroke-width:1.000000; stroke-opacity:1; 
stroke-linecap:round; stroke-linejoin:round;fill-rule:evenodd;"
d="M 114925000.000000,128200000.000000
114905970.000000,128295671.000000
114851777.000000,128376777.000000
114770671.000000,128430970.000000
114675000.000000,128450000.000000
114150000.000000,128450000.000000
114054329.000000,128430970.000000
113973223.000000,128376777.000000
113919030.000000,128295671.000000
113900000.000000,128200000.000000
113900000.000000,127300000.000000
113919030.000000,127204329.000000
113973223.000000,127123223.000000
114054329.000000,127069030.000000
114150000.000000,127050000.000000
114675000.000000,127050000.000000
114770671.000000,127069030.000000
114851777.000000,127123223.000000
114905970.000000,127204329.000000
114925000.000000,127300000.000000
Z" /> 
<path style="fill:#000000; fill-opacity:1.0; 
stroke:#000000; stroke-width:1.000000; stroke-opacity:1; 
stroke-linecap:round; stroke-linejoin:round;fill-rule:evenodd;"
d="M 113100000.000000,128200000.000000
113080970.000000,128295671.000000
113026777.000000,128376777.000000
112945671.000000,128430970.000000
112850000.000000,128450000.000000
112325000.000000,128450000.000000
112229329.000000,128430970.000000
112148223.000000,128376777.000000
112094030.000000,128295671.000000
112075000.000000,128200000.000000
112075000.000000,127300000.000000
112094030.000000,127204329.000000
112148223.000000,127123223.000000
112229329.000000,127069030.000000
112325000.000000,127050000.000000
112850000.000000,127050000.000000
112945671.000000,127069030.000000
113026777.000000,127123223.000000
113080970.000000,127204329.000000
113100000.000000,127300000.000000
Z" /> 
</g>
<g >
</g>
<g style="fill:#000000; fill-opacity:1.0; 
stroke:#000000; stroke-width:1.000000; stroke-opacity:1; 
stroke-linecap:round; stroke-linejoin:round;">
<path style="fill:#000000; fill-opacity:1.0; 
stroke:#000000; stroke-width:1.000000; stroke-opacity:1; 
stroke-linecap:round; stroke-linejoin:round;fill-rule:evenodd;"
d="M 156500000.000000,121500000.000000
153000000.000000,121500000.000000
153000000.000000,118000000.000000
156500000.000000,118000000.000000
Z" /> 
<circle cx="154750000.000000" cy="47750000.000000" r="1750000.000000" /> 
</g>
<g style="fill:#000000; fill-opacity:1.0; 
stroke:#000000; stroke-width:21200.000000; stroke-opacity:1; 
stroke-linecap:round; stroke-linejoin:round;">
</g>
<g >
</g>
<g style="fill:#000000; fill-opacity:1.0; 
stroke:#000000; stroke-width:21200.000000; stroke-opacity:1; 
stroke-linecap:round; stroke-linejoin:round;">
</g>
<g style="fill:#000000; fill-opacity:1.0; 
stroke:#000000; stroke-width:1.000000; stroke-opacity:1; 
stroke-linecap:round; stroke-linejoin:round;">
<path style="fill:#000000; fill-opacity:1.0; 
stroke:#000000; stroke-width:1.000000; stroke-opacity:1; 
stroke-linecap:round; stroke-linejoin:round;fill-rule:evenodd;"
d="M 171600000.000000,79425000.000000
171600000.000000,81125000.000000
169900000.000000,81125000.000000
169900000.000000,79425000.000000
Z" /> 
<circle cx="170750000.000000" cy="77735000.000000" r="850000.000000" /> 
</g>
<g >
</g>
<g style="fill:#000000; fill-opacity:1.0; 
stroke:#000000; stroke-width:1.000000; stroke-opacity:1; 
stroke-linecap:round; stroke-linejoin:round;">
<path style="fill:#000000; fill-opacity:1.0; 
stroke:#000000; stroke-width:1.000000; stroke-opacity:1; 
stroke-linecap:round; stroke-linejoin:round;fill-rule:evenodd;"
d="M 111000000.000000,25695000.000000
111000000.000000,24795000.000000
113000000.000000,24795000.000000
113000000.000000,25695000.000000
Z" /> 
<path style="fill:#000000; fill-opacity:1.0; 
stroke:#000000; stroke-width:1.000000; stroke-opacity:1; 
stroke-linecap:round; stroke-linejoin:round;fill-rule:evenodd;"
d="M 111000000.000000,26965000.000000
111000000.000000,26065000.000000
113000000.000000,26065000.000000
113000000.000000,26965000.000000
Z" /> 
<path style="fill:#000000; fill-opacity:1.0; 
stroke:#000000; stroke-width:1.000000; stroke-opacity:1; 
stroke-linecap:round; stroke-linejoin:round;fill-rule:evenodd;"
d="M 111000000.000000,28235000.000000
111000000.000000,27335000.000000
113000000.000000,27335000.000000
113000000.000000,28235000.000000
Z" /> 
<path style="fill:#000000; fill-opacity:1.0; 
stroke:#000000; stroke-width:1.000000; stroke-opacity:1; 
stroke-linecap:round; stroke-linejoin:round;fill-rule:evenodd;"
d="M 111000000.000000,29505000.000000
111000000.000000,28605000.000000
113000000.000000,28605000.000000
113000000.000000,29505000.000000
Z" /> 
<path style="fill:#000000; fill-opacity:1.0; 
stroke:#000000; stroke-width:1.000000; stroke-opacity:1; 
stroke-linecap:round; stroke-linejoin:round;fill-rule:evenodd;"
d="M 111000000.000000,30775000.000000
111000000.000000,29875000.000000
113000000.000000,29875000.000000
113000000.000000,30775000.000000
Z" /> 
<path style="fill:#000000; fill-opacity:1.0; 
stroke:#000000; stroke-width:1.000000; stroke-opacity:1; 
stroke-linecap:round; stroke-linejoin:round;fill-rule:evenodd;"
d="M 111000000.000000,32045000.000000
111000000.000000,31145000.000000
113000000.000000,31145000.000000
113000000.000000,32045000.000000
Z" /> 
<path style="fill:#000000; fill-opacity:1.0; 
stroke:#000000; stroke-width:1.000000; stroke-opacity:1; 
stroke-linecap:round; stroke-linejoin:round;fill-rule:evenodd;"
d="M 111000000.000000,33315000.000000
111000000.000000,32415000.000000
113000000.000000,32415000.000000
113000000.000000,33315000.000000
Z" /> 
<path style="fill:#000000; fill-opacity:1.0; 
stroke:#000000; stroke-width:1.000000; stroke-opacity:1; 
stroke-linecap:round; stroke-linejoin:round;fill-rule:evenodd;"
d="M 111000000.000000,34585000.000000
111000000.000000,33685000.000000
113000000.000000,33685000.000000
113000000.000000,34585000.000000
Z" /> 
<path style="fill:#000000; fill-opacity:1.0; 
stroke:#000000; stroke-width:1.000000; stroke-opacity:1; 
stroke-linecap:round; stroke-linejoin:round;fill-rule:evenodd;"
d="M 111000000.000000,35855000.000000
111000000.000000,34955000.000000
113000000.000000,34955000.000000
113000000.000000,35855000.000000
Z" /> 
<path style="fill:#000000; fill-opacity:1.0; 
stroke:#000000; stroke-width:1.000000; stroke-opacity:1; 
stroke-linecap:round; stroke-linejoin:round;fill-rule:evenodd;"
d="M 111000000.000000,37125000.000000
111000000.000000,36225000.000000
113000000.000000,36225000.000000
113000000.000000,37125000.000000
Z" /> 
<path style="fill:#000000; fill-opacity:1.0; 
stroke:#000000; stroke-width:1.000000; stroke-opacity:1; 
stroke-linecap:round; stroke-linejoin:round;fill-rule:evenodd;"
d="M 111000000.000000,38395000.000000
111000000.000000,37495000.000000
113000000.000000,37495000.000000
113000000.000000,38395000.000000
Z" /> 
<path style="fill:#000000; fill-opacity:1.0; 
stroke:#000000; stroke-width:1.000000; stroke-opacity:1; 
stroke-linecap:round; stroke-linejoin:round;fill-rule:evenodd;"
d="M 111000000.000000,39665000.000000
111000000.000000,38765000.000000
113000000.000000,38765000.000000
113000000.000000,39665000.000000
Z" /> 
<path style="fill:#000000; fill-opacity:1.0; 
stroke:#000000; stroke-width:1.000000; stroke-opacity:1; 
stroke-linecap:round; stroke-linejoin:round;fill-rule:evenodd;"
d="M 111000000.000000,40935000.000000
111000000.000000,40035000.000000
113000000.000000,40035000.000000
113000000.000000,40935000.000000
Z" /> 
<path style="fill:#000000; fill-opacity:1.0; 
stroke:#000000; stroke-width:1.000000; stroke-opacity:1; 
stroke-linecap:round; stroke-linejoin:round;fill-rule:evenodd;"
d="M 111000000.000000,42205000.000000
111000000.000000,41305000.000000
113000000.000000,41305000.000000
113000000.000000,42205000.000000
Z" /> 
<path style="fill:#000000; fill-opacity:1.0; 
stroke:#000000; stroke-width:1.000000; stroke-opacity:1; 
stroke-linecap:round; stroke-linejoin:round;fill-rule:evenodd;"
d="M 114335000.000000,41755000.000000
115235000.000000,41755000.000000
115235000.000000,43755000.000000
114335000.000000,43755000.000000
Z" /> 
<path style="fill:#000000; fill-opacity:1.0; 
stroke:#000000; stroke-width:1.000000; stroke-opacity:1; 
stroke-linecap:round; stroke-linejoin:round;fill-rule:evenodd;"
d="M 116505000.000000,43755000.000000
115605000.000000,43755000.000000
115605000.000000,41755000.000000
116505000.000000,41755000.000000
Z" /> 
<path style="fill:#000000; fill-opacity:1.0; 
stroke:#000000; stroke-width:1.000000; stroke-opacity:1; 
stroke-linecap:round; stroke-linejoin:round;fill-rule:evenodd;"
d="M 117775000.000000,43755000.000000
116875000.000000,43755000.000000
116875000.000000,41755000.000000
117775000.000000,41755000.000000
Z" /> 
<path style="fill:#000000; fill-opacity:1.0; 
stroke:#000000; stroke-width:1.000000; stroke-opacity:1; 
stroke-linecap:round; stroke-linejoin:round;fill-rule:evenodd;"
d="M 119045000.000000,43755000.000000
118145000.000000,43755000.000000
118145000.000000,41755000.000000
119045000.000000,41755000.000000
Z" /> 
<path style="fill:#000000; fill-opacity:1.0; 
stroke:#000000; stroke-width:1.000000; stroke-opacity:1; 
stroke-linecap:round; stroke-linejoin:round;fill-rule:evenodd;"
d="M 120315000.000000,43755000.000000
119415000.000000,43755000.000000
119415000.000000,41755000.000000
120315000.000000,41755000.000000
Z" /> 
<path style="fill:#000000; fill-opacity:1.0; 
stroke:#000000; stroke-width:1.000000; stroke-opacity:1; 
stroke-linecap:round; stroke-linejoin:round;fill-rule:evenodd;"
d="M 121585000.000000,43755000.000000
120685000.000000,43755000.000000
120685000.000000,41755000.000000
121585000.000000,41755000.000000
Z" /> 
<path style="fill:#000000; fill-opacity:1.0; 
stroke:#000000; stroke-width:1.000000; stroke-opacity:1; 
stroke-linecap:round; stroke-linejoin:round;fill-rule:evenodd;"
d="M 122855000.000000,43755000.000000
121955000.000000,43755000.000000
121955000.000000,41755000.000000
122855000.000000,41755000.000000
Z" /> 
<path style="fill:#000000; fill-opacity:1.0; 
stroke:#000000; stroke-width:1.000000; stroke-opacity:1; 
stroke-linecap:round; stroke-linejoin:round;fill-rule:evenodd;"
d="M 124125000.000000,43755000.000000
123225000.000000,43755000.000000
123225000.000000,41755000.000000
124125000.000000,41755000.000000
Z" /> 
<path style="fill:#000000; fill-opacity:1.0; 
stroke:#000000; stroke-width:1.000000; stroke-opacity:1; 
stroke-linecap:round; stroke-linejoin:round;fill-rule:evenodd;"
d="M 125395000.000000,43755000.000000
124495000.000000,43755000.000000
124495000.000000,41755000.000000
125395000.000000,41755000.000000
Z" /> 
<path style="fill:#000000; fill-opacity:1.0; 
stroke:#000000; stroke-width:1.000000; stroke-opacity:1; 
stroke-linecap:round; stroke-linejoin:round;fill-rule:evenodd;"
d="M 126665000.000000,43755000.000000
125765000.000000,43755000.000000
125765000.000000,41755000.000000
126665000.000000,41755000.000000
Z" /> 
<path style="fill:#000000; fill-opacity:1.0; 
stroke:#000000; stroke-width:1.000000; stroke-opacity:1; 
stroke-linecap:round; stroke-linejoin:round;fill-rule:evenodd;"
d="M 128000000.000000,42205000.000000
128000000.000000,41305000.000000
130000000.000000,41305000.000000
130000000.000000,42205000.000000
Z" /> 
<path style="fill:#000000; fill-opacity:1.0; 
stroke:#000000; stroke-width:1.000000; stroke-opacity:1; 
stroke-linecap:round; stroke-linejoin:round;fill-rule:evenodd;"
d="M 128000000.000000,40935000.000000
128000000.000000,40035000.000000
130000000.000000,40035000.000000
130000000.000000,40935000.000000
Z" /> 
<path style="fill:#000000; fill-opacity:1.0; 
stroke:#000000; stroke-width:1.000000; stroke-opacity:1; 
stroke-linecap:round; stroke-linejoin:round;fill-rule:evenodd;"
d="M 128000000.000000,39665000.000000
128000000.000000,38765000.000000
130000000.000000,38765000.000000
130000000.000000,39665000.000000
Z" /> 
<path style="fill:#000000; fill-opacity:1.0; 
stroke:#000000; stroke-width:1.000000; stroke-opacity:1; 
stroke-linecap:round; stroke-linejoin:round;fill-rule:evenodd;"
d="M 128000000.000000,38395000.000000
128000000.000000,37495000.000000
130000000.000000,37495000.000000
130000000.000000,38395000.000000
Z" /> 
<path style="fill:#000000; fill-opacity:1.0; 
stroke:#000000; stroke-width:1.000000; stroke-opacity:1; 
stroke-linecap:round; stroke-linejoin:round;fill-rule:evenodd;"
d="M 128000000.000000,37125000.000000
128000000.000000,36225000.000000
130000000.000000,36225000.000000
130000000.000000,37125000.000000
Z" /> 
<path style="fill:#000000; fill-opacity:1.0; 
stroke:#000000; stroke-width:1.000000; stroke-opacity:1; 
stroke-linecap:round; stroke-linejoin:round;fill-rule:evenodd;"
d="M 128000000.000000,35855000.000000
128000000.000000,34955000.000000
130000000.000000,34955000.000000
130000000.000000,35855000.000000
Z" /> 
<path style="fill:#000000; fill-opacity:1.0; 
stroke:#000000; stroke-width:1.000000; stroke-opacity:1; 
stroke-linecap:round; stroke-linejoin:round;fill-rule:evenodd;"
d="M 128000000.000000,34585000.000000
128000000.000000,33685000.000000
130000000.000000,33685000.000000
130000000.000000,34585000.000000
Z" /> 
<path style="fill:#000000; fill-opacity:1.0; 
stroke:#000000; stroke-width:1.000000; stroke-opacity:1; 
stroke-linecap:round; stroke-linejoin:round;fill-rule:evenodd;"
d="M 128000000.000000,33315000.000000
128000000.000000,32415000.000000
130000000.000000,32415000.000000
130000000.000000,33315000.000000
Z" /> 
<path style="fill:#000000; fill-opacity:1.0; 
stroke:#000000; stroke-width:1.000000; stroke-opacity:1; 
stroke-linecap:round; stroke-linejoin:round;fill-rule:evenodd;"
d="M 128000000.000000,32045000.000000
128000000.000000,31145000.000000
130000000.000000,31145000.000000
130000000.000000,32045000.000000
Z" /> 
<path style="fill:#000000; fill-opacity:1.0; 
stroke:#000000; stroke-width:1.000000; stroke-opacity:1; 
stroke-linecap:round; stroke-linejoin:round;fill-rule:evenodd;"
d="M 128000000.000000,30775000.000000
128000000.000000,29875000.000000
130000000.000000,29875000.000000
130000000.000000,30775000.000000
Z" /> 
<path style="fill:#000000; fill-opacity:1.0; 
stroke:#000000; stroke-width:1.000000; stroke-opacity:1; 
stroke-linecap:round; stroke-linejoin:round;fill-rule:evenodd;"
d="M 128000000.000000,29505000.000000
128000000.000000,28605000.000000
130000000.000000,28605000.000000
130000000.000000,29505000.000000
Z" /> 
<path style="fill:#000000; fill-opacity:1.0; 
stroke:#000000; stroke-width:1.000000; stroke-opacity:1; 
stroke-linecap:round; stroke-linejoin:round;fill-rule:evenodd;"
d="M 128000000.000000,28235000.000000
128000000.000000,27335000.000000
130000000.000000,27335000.000000
130000000.000000,28235000.000000
Z" /> 
<path style="fill:#000000; fill-opacity:1.0; 
stroke:#000000; stroke-width:1.000000; stroke-opacity:1; 
stroke-linecap:round; stroke-linejoin:round;fill-rule:evenodd;"
d="M 128000000.000000,26965000.000000
128000000.000000,26065000.000000
130000000.000000,26065000.000000
130000000.000000,26965000.000000
Z" /> 
<path style="fill:#000000; fill-opacity:1.0; 
stroke:#000000; stroke-width:1.000000; stroke-opacity:1; 
stroke-linecap:round; stroke-linejoin:round;fill-rule:evenodd;"
d="M 128000000.000000,25695000.000000
128000000.000000,24795000.000000
130000000.000000,24795000.000000
130000000.000000,25695000.000000
Z" /> 
<path style="fill:#000000; fill-opacity:1.0; 
stroke:#000000; stroke-width:1.000000; stroke-opacity:1; 
stroke-linecap:round; stroke-linejoin:round;fill-rule:evenodd;"
d="M 117000000.000000,35245000.000000
117000000.000000,30245000.000000
122000000.000000,30245000.000000
122000000.000000,35245000.000000
Z" /> 
</g>
<g >
</g>
<g style="fill:#000000; fill-opacity:1.0; 
stroke:#000000; stroke-width:1.000000; stroke-opacity:1; 
stroke-linecap:round; stroke-linejoin:round;">
<path style="fill:#000000; fill-opacity:1.0; 
stroke:#000000; stroke-width:1.000000; stroke-opacity:1; 
stroke-linecap:round; stroke-linejoin:round;fill-rule:evenodd;"
d="M 107200000.000000,26975000.000000
107180970.000000,27070671.000000
107126777.000000,27151777.000000
107045671.000000,27205970.000000
106950000.000000,27225000.000000
106450000.000000,27225000.000000
106354329.000000,27205970.000000
106273223.000000,27151777.000000
106219030.000000,27070671.000000
106200000.000000,26975000.000000
106200000.000000,26025000.000000
106219030.000000,25929329.000000
106273223.000000,25848223.000000
106354329.000000,25794030.000000
106450000.000000,25775000.000000
106950000.000000,25775000.000000
107045671.000000,25794030.000000
107126777.000000,25848223.000000
107180970.000000,25929329.000000
107200000.000000,26025000.000000
Z" /> 
<path style="fill:#000000; fill-opacity:1.0; 
stroke:#000000; stroke-width:1.000000; stroke-opacity:1; 
stroke-linecap:round; stroke-linejoin:round;fill-rule:evenodd;"
d="M 105300000.000000,26975000.000000
105280970.000000,27070671.000000
105226777.000000,27151777.000000
105145671.000000,27205970.000000
105050000.000000,27225000.000000
104550000.000000,27225000.000000
104454329.000000,27205970.000000
104373223.000000,27151777.000000
104319030.000000,27070671.000000
104300000.000000,26975000.000000
104300000.000000,26025000.000000
104319030.000000,25929329.000000
104373223.000000,25848223.000000
104454329.000000,25794030.000000
104550000.000000,25775000.000000
105050000.000000,25775000.000000
105145671.000000,25794030.000000
105226777.000000,25848223.000000
105280970.000000,25929329.000000
105300000.000000,26025000.000000
Z" /> 
</g>
<g >
</g>
<g style="fill:#000000; fill-opacity:1.0; 
stroke:#000000; stroke-width:1.000000; stroke-opacity:1; 
stroke-linecap:round; stroke-linejoin:round;">
<path style="fill:#000000; fill-opacity:1.0; 
stroke:#000000; stroke-width:1.000000; stroke-opacity:1; 
stroke-linecap:round; stroke-linejoin:round;fill-rule:evenodd;"
d="M 120404000.000000,71498000.000000
120404000.000000,70498000.000000
121404000.000000,70498000.000000
121404000.000000,71498000.000000
Z" /> 
<circle cx="120904000.000000" cy="72268000.000000" r="500000.000000" /> 
<circle cx="120904000.000000" cy="73538000.000000" r="500000.000000" /> 
<circle cx="120904000.000000" cy="74808000.000000" r="500000.000000" /> 
</g>
<g >
</g>
<g style="fill:#000000; fill-opacity:1.0; 
stroke:#000000; stroke-width:1.000000; stroke-opacity:1; 
stroke-linecap:round; stroke-linejoin:round;">
<path style="fill:#000000; fill-opacity:1.0; 
stroke:#000000; stroke-width:1.000000; stroke-opacity:1; 
stroke-linecap:round; stroke-linejoin:round;fill-rule:evenodd;"
d="M 102550000.000000,32525000.000000
102569030.000000,32429329.000000
102623223.000000,32348223.000000
102704329.000000,32294030.000000
102800000.000000,32275000.000000
103300000.000000,32275000.000000
103395671.000000,32294030.000000
103476777.000000,32348223.000000
103530970.000000,32429329.000000
103550000.000000,32525000.000000
103550000.000000,33475000.000000
103530970.000000,33570671.000000
103476777.000000,33651777.000000
103395671.000000,33705970.000000
103300000.000000,33725000.000000
102800000.000000,33725000.000000
102704329.000000,33705970.000000
102623223.000000,33651777.000000
102569030.000000,33570671.000000
102550000.000000,33475000.000000
Z" /> 
<path style="fill:#000000; fill-opacity:1.0; 
stroke:#000000; stroke-width:1.000000; stroke-opacity:1; 
stroke-linecap:round; stroke-linejoin:round;fill-rule:evenodd;"
d="M 104450000.000000,32525000.000000
104469030.000000,32429329.000000
104523223.000000,32348223.000000
104604329.000000,32294030.000000
104700000.000000,32275000.000000
105200000.000000,32275000.000000
105295671.000000,32294030.000000
105376777.000000,32348223.000000
105430970.000000,32429329.000000
105450000.000000,32525000.000000
105450000.000000,33475000.000000
105430970.000000,33570671.000000
105376777.000000,33651777.000000
105295671.000000,33705970.000000
105200000.000000,33725000.000000
104700000.000000,33725000.000000
104604329.000000,33705970.000000
104523223.000000,33651777.000000
104469030.000000,33570671.000000
104450000.000000,33475000.000000
Z" /> 
</g>
<g >
</g>
<g >
</g>
<g style="fill:#000000; fill-opacity:1.0; 
stroke:#000000; stroke-width:1.000000; stroke-opacity:1; 
stroke-linecap:round; stroke-linejoin:round;">
</g>
<g style="fill:#000000; fill-opacity:1.0; 
stroke:#000000; stroke-width:700000.000000; stroke-opacity:1; 
stroke-linecap:round; stroke-linejoin:round;">
</g>
<g style="fill:#000000; fill-opacity:0.0; 
stroke:#000000; stroke-width:700000.000000; stroke-opacity:1; 
stroke-linecap:round; stroke-linejoin:round;">
<path d="M98750000 30500000
L106250000 30500000
" />
<path d="M106250000 30500000
L106750000 30000000
" />
<path d="M106750000 28800000
L106700000 28750000
" />
<path d="M106715000 26515000
L106700000 26500000
" />
<path d="M97587500 31662500
L98750000 30500000
" />
<path d="M106750000 30000000
L106750000 28800000
" />
<path d="M112000000 26515000
L106715000 26515000
" />
<path d="M106700000 26500000
L106700000 28750000
" />
<path d="M97587500 33000000
L97587500 31662500
" />
</g>
<g style="fill:#000000; fill-opacity:0.0; 
stroke:#000000; stroke-width:250000.000000; stroke-opacity:1; 
stroke-linecap:round; stroke-linejoin:round;">
<path d="M87300000 38437500
L87300000 40625000
" />
<path d="M87175000 40750000
L87175000 43000000
" />
<path d="M87300000 40625000
L87175000 40750000
" />
<path d="M122005000 25245000
L119500000 27750000
" />
<path d="M104800000 26500000
L104800000 28750000
" />
<path d="M129000000 25245000
L122005000 25245000
" />
<path d="M119500000 27750000
L119500000 32745000
" />
<path d="M119500000 27500000
L119500000 32745000
" />
<path d="M141830000 32000000
L141830000 36330000
" />
<path d="M143500000 38000000
L147150000 38000000
" />
<path d="M104800000 25950000
L105505000 25245000
" />
<path d="M104800000 26500000
L104800000 25950000
" />
<path d="M117245000 25245000
L119500000 27500000
" />
<path d="M114785000 39715000
L119500000 35000000
" />
<path d="M114785000 42755000
L114785000 39715000
" />
<path d="M119500000 35000000
L119500000 32745000
" />
<path d="M112000000 25245000
L117245000 25245000
" />
<path d="M105505000 25245000
L112000000 25245000
" />
<path d="M141830000 36330000
L143500000 38000000
" />
<path d="M92800000 41212500
L92837500 41250000
" />
<path d="M92000000 36500000
L88312500 36500000
" />
<path d="M88312500 36500000
L88250000 36562500
" />
<path d="M92800000 38437500
L92800000 37300000
" />
<path d="M92800000 38437500
L92800000 41212500
" />
<path d="M92800000 37300000
L92000000 36500000
" />
<path d="M96000000 37000000
L96000000 40250000
" />
<path d="M97000000 41250000
L98087500 41250000
" />
<path d="M95562500 36562500
L96000000 37000000
" />
<path d="M93750000 36562500
L95562500 36562500
" />
<path d="M96000000 40250000
L97000000 41250000
" />
</g>
<g style="fill:#000000; fill-opacity:0.0; 
stroke:#000000; stroke-width:700000.000000; stroke-opacity:1; 
stroke-linecap:round; stroke-linejoin:round;">
<path d="M148900000 119850000
L149000000 119750000
" />
<path d="M145750000 119750000
L149000000 119750000
" />
<path d="M149000000 119750000
L154750000 119750000
" />
<path d="M132500000 119750000
L145750000 119750000
" />
<path d="M94700000 41212500
L94662500 41250000
" />
<path d="M109250000 119750000
L132500000 119750000
" />
<path d="M98250000 50750000
L94662500 47162500
" />
<path d="M148900000 126250000
L148900000 119850000
" />
<path d="M87000000 119750000
L94500000 119750000
" />
<path d="M98250000 116000000
L98250000 50750000
" />
<path d="M154750000 119750000
L161000000 119750000
" />
<path d="M94700000 38437500
L94700000 41212500
" />
<path d="M170750000 110000000
L170750000 80275000
" />
<path d="M161000000 119750000
L170750000 110000000
" />
<path d="M94500000 119750000
L98250000 116000000
" />
<path d="M94662500 47162500
L94662500 41250000
" />
</g>
<g style="fill:#000000; fill-opacity:0.0; 
stroke:#000000; stroke-width:250000.000000; stroke-opacity:1; 
stroke-linecap:round; stroke-linejoin:round;">
<path d="M99412500 33000000
L103050000 33000000
" />
<path d="M103500000 31500000
L103050000 31950000
" />
<path d="M107750000 31500000
L103500000 31500000
" />
<path d="M103050000 36800000
L103750000 37500000
" />
<path d="M108750000 30500000
L107750000 31500000
" />
<path d="M103750000 37500000
L105400000 37500000
" />
<path d="M112000000 27785000
L109715000 27785000
" />
<path d="M108750000 28750000
L108750000 30500000
" />
<path d="M103050000 31950000
L103050000 33000000
" />
<path d="M109715000 27785000
L108750000 28750000
" />
<path d="M103050000 33000000
L103050000 36800000
" />
<path d="M112000000 27785000
L112000000 27750000
" />
<path d="M101250000 41250000
L103837500 41250000
" />
<path d="M106750000 34000000
L109155000 31595000
" />
<path d="M101250000 41250000
L99912500 41250000
" />
<path d="M102000000 41250000
L101750000 41250000
" />
<path d="M101750000 41250000
L101250000 41250000
" />
<path d="M106750000 39250000
L106750000 34000000
" />
<path d="M102250000 39750000
L106250000 39750000
" />
<path d="M101750000 40250000
L102250000 39750000
" />
<path d="M101750000 41250000
L101750000 40250000
" />
<path d="M103800000 41250000
L101750000 41250000
" />
<path d="M106250000 39750000
L106750000 39250000
" />
<path d="M109155000 31595000
L112000000 31595000
" />
<path d="M109345000 35405000
L107250000 37500000
" />
<path d="M109595000 35405000
L109345000 35405000
" />
<path d="M112000000 35405000
L109500000 35405000
" />
<path d="M107250000 37500000
L107250000 41000000
" />
<path d="M112000000 36675000
L109325000 36675000
" />
<path d="M109325000 36675000
L107750000 38250000
" />
<path d="M107750000 38250000
L107750000 41250000
" />
<path d="M112000000 37945000
L109055000 37945000
" />
<path d="M109055000 37945000
L108250000 38750000
" />
<path d="M108250000 38750000
L108250000 41386396
" />
<path d="M110035000 39215000
L108750000 40500000
" />
<path d="M99750000 51000000
L99750000 117000000
" />
<path d="M105750000 130500000
L106987500 130500000
" />
<path d="M112557500 130220000
L112587500 130250000
" />
<path d="M107267500 130220000
L112557500 130220000
" />
<path d="M103500000 120750000
L103500000 128250000
" />
<path d="M108750000 42000000
L99750000 51000000
" />
<path d="M112000000 39215000
L110035000 39215000
" />
<path d="M108750000 40500000
L108750000 42000000
" />
<path d="M99750000 117000000
L103500000 120750000
" />
<path d="M103500000 128250000
L105750000 130500000
" />
<path d="M106987500 130500000
L107267500 130220000
" />
<path d="M109250000 41500000
L109250000 43818198
" />
<path d="M110265000 40485000
L109250000 41500000
" />
<path d="M107267500 127680000
L112517500 127680000
" />
<path d="M112517500 127680000
L112587500 127750000
" />
<path d="M112000000 40485000
L110265000 40485000
" />
<path d="M107267500 135300000
L112537500 135300000
" />
<path d="M110500000 41750000
L109750000 42500000
" />
<path d="M112000000 41755000
L110505000 41755000
" />
<path d="M110505000 41755000
L110500000 41750000
" />
<path d="M109750000 42500000
L109750000 44000000
" />
<path d="M112537500 135300000
L112587500 135250000
" />
<path d="M107267500 132760000
L112577500 132760000
" />
<path d="M111750000 116000000
L103500000 116000000
" />
<path d="M116055000 111695000
L111750000 116000000
" />
<path d="M112577500 132760000
L112587500 132750000
" />
<path d="M116055000 42755000
L116055000 111695000
" />
<path d="M139290000 37940000
L139350000 38000000
" />
<path d="M139290000 32000000
L139290000 37940000
" />
<path d="M142695000 30325000
L144370000 32000000
" />
<path d="M129000000 30325000
L142695000 30325000
" />
<path d="M143965000 29055000
L146910000 32000000
" />
<path d="M129000000 29055000
L143965000 29055000
" />
</g>
<g >
</g>
</g> 
</svg>
